 <svg width="32" height="32" fill="none" xmlns="http://www.w3.org/2000/svg"><path d="M21.637 1.142c-.507.281-1.334 1.064-2.34 2.207l.921 1.618a20.827 20.827 0 012.03-2.374c-.028.026-.047.053-.075.079-.216.22-.864.923-1.832 2.33.94-.044 2.387-.22 3.562-.413.347-1.838-.348-2.682-.348-2.682s-.884-1.336-1.918-.765z" fill="url(#paint0_linear)"/><path d="M18.555 14.735c-.113.017-.235.035-.357.061l.188-.026c.056-.018.112-.026.169-.035z" fill="#BE202E"/><path opacity=".35" d="M18.555 14.735c-.113.017-.235.035-.357.061l.188-.026c.056-.018.112-.026.169-.035z" fill="#BE202E"/><path d="M18.865 13.32c.019 0 .038 0 .056-.01.076-.008.15-.026.226-.035-.094.01-.188.027-.282.044z" fill="#BE202E"/><path opacity=".35" d="M18.865 13.32c.019 0 .038 0 .056-.01.076-.008.15-.026.226-.035-.094.01-.188.027-.282.044z" fill="#BE202E"/><path d="M17.512 9.143c.282-.484.563-.967.845-1.424.301-.484.593-.95.903-1.398l.056-.08c.3-.439.602-.87.902-1.274l-.92-1.618c-.066.08-.142.158-.207.237a49.089 49.089 0 00-1.795 2.26 44.714 44.714 0 00-1.72 2.453c-.01.018-.02.026-.029.044l1.194 2.207c.254-.484.507-.95.77-1.407z" fill="url(#paint1_linear)"/><path d="M12.079 21.557c-.16.405-.32.818-.48 1.24 0 .009 0 .009-.009.017-.018.062-.047.123-.066.176l-.413 1.126c.348.149.63.545.902.993a1.78 1.78 0 00-.62-1.24c1.73.07 3.224-.334 3.994-1.52a3.75 3.75 0 00.188-.335c-.347.413-.79.59-1.607.554h-.01.01c1.203-.501 1.805-.985 2.34-1.793.123-.194.254-.396.376-.625-1.052 1.012-2.274 1.302-3.562 1.082l-.968.096c-.01.08-.047.159-.075.23z" fill="url(#paint2_linear)"/><path d="M12.53 19.543c.207-.5.423-1.01.64-1.53a59.4 59.4 0 01.648-1.485c.225-.502.451-.994.677-1.495a78.836 78.836 0 011.466-3.007c.094-.176.178-.352.272-.527.16-.308.32-.607.48-.906a.19.19 0 01.028-.044l-1.194-2.215c-.019.026-.037.061-.056.087-.282.422-.555.862-.827 1.302-.273.448-.545.905-.809 1.362a30.702 30.702 0 00-.77 1.416c-.263.501-.498.985-.705 1.45a28.492 28.492 0 00-.978 2.41c-.084.246-.16.5-.235.747a24 24 0 00-.46 1.75l1.193 2.224c.16-.396.32-.8.49-1.205.046-.105.093-.22.14-.334z" fill="url(#paint3_linear)"/><path d="M10.688 18.946c-.15.712-.254 1.416-.31 2.12 0 .026 0 .052-.01.07-.375-.563-1.372-1.108-1.372-1.1.715.976 1.26 1.935 1.344 2.884-.385.07-.911-.035-1.513-.237.63.545 1.11.695 1.297.738-.583.036-1.184.405-1.795.836.893-.343 1.617-.475 2.133-.37A152.45 152.45 0 008 31a.702.702 0 00.489-.44c.15-.457 1.118-3.481 2.64-7.455.048-.114.085-.229.132-.343.01-.035.029-.061.038-.097.16-.413.329-.844.498-1.274.038-.097.075-.194.122-.3v-.008l-1.193-2.216c-.029.035-.029.062-.038.08z" fill="url(#paint4_linear)"/><path d="M16.929 10.725c-.038.062-.066.132-.104.203l-.31.606a44.14 44.14 0 01-.348.695c-.056.114-.122.237-.178.36-.179.36-.357.739-.545 1.126-.226.474-.451.967-.686 1.486a64.8 64.8 0 00-.677 1.52c-.216.502-.432 1.012-.658 1.54-.197.474-.395.957-.601 1.45-.01.026-.02.044-.029.07-.197.492-.404 1.002-.601 1.521 0 .009-.01.026-.01.035l.968-.096c-.018 0-.037-.01-.056-.01 1.156-.131 2.688-.94 3.675-1.934a8.136 8.136 0 001.25-1.635c.282-.474.555-.993.808-1.573.226-.51.433-1.056.64-1.645a3.337 3.337 0 01-.903.29c-.056.01-.122.027-.178.036a9.178 9.178 0 01-.188.026c1.071-.387 1.757-1.134 2.246-2.048a3.866 3.866 0 01-1.297.527c-.075.018-.15.026-.226.035-.018 0-.037.009-.056.009a4.5 4.5 0 00.959-.501l.169-.132c.084-.07.16-.14.235-.211a4.409 4.409 0 00.442-.536l.084-.132c.038-.062.066-.132.103-.194.15-.281.273-.536.367-.756.047-.114.094-.21.122-.307a.414.414 0 00.038-.115c.037-.105.066-.202.094-.281.037-.123.056-.22.075-.29-.038.026-.075.053-.122.079-.33.184-.884.343-1.335.422l.884-.088-.884.088h-.019a.782.782 0 01-.131.018c.01 0 .019-.01.019-.01l-3.027.308c0 .027-.01.036-.01.044z" fill="url(#paint5_linear)"/><path d="M20.331 4.993a34.922 34.922 0 00-.93 1.407c-.273.43-.564.906-.865 1.424a86.63 86.63 0 00-.827 1.442c-.244.449-.508.923-.77 1.433l3.026-.307c.883-.378 1.278-.721 1.663-1.223.104-.14.207-.28.31-.43.31-.458.62-.959.893-1.451.263-.484.498-.958.677-1.39.113-.272.207-.527.263-.746.056-.194.094-.387.132-.563-1.185.184-2.632.36-3.572.404z" fill="url(#paint6_linear)"/><defs><linearGradient id="paint0_linear" x1="20.089" y1="3.541" x2="26.735" y2="1.566" gradientUnits="userSpaceOnUse"><stop stop-color="#F69923"/><stop offset=".312" stop-color="#F79A23"/><stop offset=".838" stop-color="#E97826"/></linearGradient><linearGradient id="paint1_linear" x1="5.394" y1="31.728" x2="17.616" y2="3.708" gradientUnits="userSpaceOnUse"><stop offset=".323" stop-color="#9E2064"/><stop offset=".63" stop-color="#C92037"/><stop offset=".751" stop-color="#CD2335"/><stop offset="1" stop-color="#E97826"/></linearGradient><linearGradient id="paint2_linear" x1="9.979" y1="29.702" x2="17.262" y2="13.005" gradientUnits="userSpaceOnUse"><stop stop-color="#282662"/><stop offset=".095" stop-color="#662E8D"/><stop offset=".788" stop-color="#9F2064"/><stop offset=".949" stop-color="#CD2032"/></linearGradient><linearGradient id="paint3_linear" x1="5.888" y1="30.07" x2="18.11" y2="2.05" gradientUnits="userSpaceOnUse"><stop offset=".323" stop-color="#9E2064"/><stop offset=".63" stop-color="#C92037"/><stop offset=".751" stop-color="#CD2335"/><stop offset="1" stop-color="#E97826"/></linearGradient><linearGradient id="paint4_linear" x1="7.28" y1="28.246" x2="13.703" y2="13.52" gradientUnits="userSpaceOnUse"><stop stop-color="#282662"/><stop offset=".095" stop-color="#662E8D"/><stop offset=".788" stop-color="#9F2064"/><stop offset=".949" stop-color="#CD2032"/></linearGradient><linearGradient id="paint5_linear" x1="8.919" y1="31.392" x2="21.141" y2="3.373" gradientUnits="userSpaceOnUse"><stop offset=".323" stop-color="#9E2064"/><stop offset=".63" stop-color="#C92037"/><stop offset=".751" stop-color="#CD2335"/><stop offset="1" stop-color="#E97826"/></linearGradient><linearGradient id="paint6_linear" x1="7.921" y1="33.026" x2="20.143" y2="5.007" gradientUnits="userSpaceOnUse"><stop offset=".323" stop-color="#9E2064"/><stop offset=".63" stop-color="#C92037"/><stop offset=".751" stop-color="#CD2335"/><stop offset="1" stop-color="#E97826"/></linearGradient></defs></svg> 