<svg width="32" height="32" fill="none" xmlns="http://www.w3.org/2000/svg"><path d="M24.36 13.95c.208 2.394-3.562 4.678-8.425 5.094-4.864.415-8.962-1.192-9.17-3.585-.208-2.393 3.563-4.678 8.426-5.093 4.853-.415 8.962 1.18 9.17 3.585z" fill="#BBE6FB"/><path d="M15.322 10.64c-1.857-.034-4.021.71-5.639 1.398a4.735 4.735 0 00-.262 1.53c0 2.842 2.568 5.148 5.738 5.148 3.169 0 5.748-2.295 5.748-5.148a4.75 4.75 0 00-.71-2.48c-1.29-.197-3.071-.416-4.875-.449z" fill="#fff"/><path d="M15.17 10.64c-1.028-.066-2.798.47-4.274 1.005a4.262 4.262 0 00-.35 1.716c0 2.491 2.263 4.513 4.645 4.513 2.372 0 4.47-2.022 4.645-4.513.055-.81-.218-1.574-.612-2.23a44.649 44.649 0 00-4.055-.492z" fill="#fff"/><path d="M12.536 13.044c.13-.284.316-.415.502-.645a1.428 1.428 0 01-.065-.295c0-.284.23-.503.502-.503.066 0 .132.011.186.033a3.675 3.675 0 013.06-.667c.099.022.197.055.295.077-1.092-.153-2.338.24-3.18.918.022.065.098.23.098.306 0 .284-.185.35-.459.35a.555.555 0 01-.185-.033c-.186.251-.427.743-.536 1.049.47.415.885.568 1.432.776 0-.022.022-.055.022-.077 0-.841.743-1.53 1.584-1.53.755 0 1.388.547 1.509 1.268.382-.24.743-.426 1.016-.776-.066-.076-.131-.306-.131-.415a.462.462 0 01.568-.448c.142-.295.252-.601.317-.918-1.322-.984-3.88-.842-3.88-.842s-2.033-.11-3.41.569c.099.633.361 1.267.755 1.803z" fill="#373535"/><path d="M18.852 12.661a.814.814 0 01.186.23c.12.218-.12.426-.382.426-.022 0-.055 0-.077-.011-.284.448-.787 1.016-1.235 1.311.689.11 1.334.383 1.836.81.372-.668.656-1.64.656-2.46 0-.623-.273-1.082-.688-1.42-.011.338-.197.808-.296 1.114zm-5.552 4.24c.23-.633.787-1.114 1.323-1.54a2.922 2.922 0 01-.24-.492 3.791 3.791 0 01-1.662-1.05c0 .011-.01.033-.01.044a3.206 3.206 0 00-.055 1.115.67.67 0 01.546.656c0 .197-.175.47-.306.6.131.285.23.438.404.668z" fill="#373535"/><path d="M13.257 17.426c-.273-.273-.46-.808-.634-1.147-.033 0-.066.01-.098.01-.372 0-.755-.305-.667-.666.044-.197.186-.328.404-.437-.054-.415-.065-.995.033-1.421.022-.12.088-.175.12-.295a3.919 3.919 0 01-.666-2.153v-.088c-.689.35-1.203.886-1.203 1.738 0 1.89 1.093 3.749 2.71 4.47v-.01zm3.989-2.612a1.54 1.54 0 01-1.443 1.027c-.36 0-.688-.12-.94-.327-.535.415-1.027 1.147-1.267 1.792.109.12.185.219.317.328.371.098.896 0 1.3 0 1.629 0 3.082-.721 3.913-2-.569-.394-1.224-.765-1.88-.82z" fill="#373535"/><path d="M12.492 13.262c.13-.284.284-.535.47-.776a.501.501 0 01.47-.678.51.51 0 01.185.034 3.676 3.676 0 013.06-.667c.099.022.197.055.296.076-1.093-.153-2.23.186-3.071.864a.637.637 0 01.043.197c0 .284-.23.502-.502.502a.556.556 0 01-.186-.033c-.186.252-.35.536-.46.842.405.426.897.776 1.443.973v-.077c0-.841.689-1.53 1.53-1.53.755 0 1.388.547 1.509 1.268.382-.24.71-.547.994-.907a.437.437 0 01-.11-.284.463.463 0 01.57-.449c.141-.295.25-.6.316-.918-1.322-.983-3.88-.841-3.88-.841s-2.032-.11-3.41.568c.077.667.34 1.3.733 1.836z" fill="#1287B1"/><path d="M18.918 12.738a.448.448 0 01.153.339.462.462 0 01-.459.459c-.022 0-.055 0-.076-.011-.285.448-.667.83-1.115 1.114a3.674 3.674 0 011.792.81 4.65 4.65 0 00.59-2.263c0-.623-.273-1.082-.688-1.42a3.575 3.575 0 01-.197.972zm-5.552 4.306a3.639 3.639 0 011.159-1.618 1.34 1.34 0 01-.186-.35 3.791 3.791 0 01-1.661-1.049c0 .011-.011.033-.011.044a3.206 3.206 0 00-.055 1.115.67.67 0 01.546.656.668.668 0 01-.218.491c.11.252.262.492.426.71z" fill="#1287B1"/><path d="M13.257 17.415a3.698 3.698 0 01-.678-.918c-.033 0-.065.011-.098.011a.662.662 0 01-.667-.667c0-.262.153-.491.372-.6a3.496 3.496 0 01.065-1.258c.022-.12.066-.24.099-.36a3.688 3.688 0 01-.645-2.088v-.087c-.689.35-1.202.885-1.202 1.738a4.637 4.637 0 002.743 4.24c.01 0 .01 0 .01-.01zm3.945-2.382a1.54 1.54 0 01-1.442 1.027c-.361 0-.689-.12-.94-.328a3.79 3.79 0 00-1.192 1.629c.11.12.23.23.35.338.372.099.765.153 1.17.153a4.65 4.65 0 003.901-2.12 3.724 3.724 0 00-1.847-.7z" fill="#1287B1"/><path d="M17.257 14.64l1.41-.34-1.421-.076 1.158-.874-1.311.47.885-1.235-1.235.82.427-1.443-.842 1.19-.022-1.507-.557 1.344-.46-1.355.023 1.595-.798-1.431.437 1.519-1.3-.94 1.016 1.279-1.618-.59 1.268.94-1.628.054 1.672.426-1.672.36 1.65.121-1.388.885 1.432-.513-.995 1.257 1.257-1.017-.448 1.683.973-1.377-.132 1.618.547-1.476.47 1.541.109-1.552.7 1.323-.416-1.508 1.268.983-.82-1.257 1.4.547-1.072-1.05 1.432.11-1.4-.525z" fill="#fff"/><path d="M2.208 17.339c4.382-4.383 7.88-5.738 11.06-6.35.415-.077.502-1.006.502-1.006s.055.678.35.765c.295.088.678-1.06.678-1.06s-.35 1.028 0 1.093c.35.055 1.005-1.005 1.005-1.005s-.262.907-.087.973c.175.054 1.06-1.323 1.06-1.323s-.525.907-.033 1.006c.503.087 1.235-.623 1.235-.623s-.568.644-.317.743c1.093.382 1.967-1.028 1.967-1.028s-.207.623-.732 1.301c1.148.295 2-1.432 2-1.432l-.852 1.727c.437.219 2.197-1.814 2.197-1.814s-.908 1.585-1.443 1.913c.295.24 1.355-.71 1.355-.71s-.852 1.06-.525 1.114c.47.382 2.208-1.967 2.208-1.967s-.677 1.388-1.672 2.47c.83.426 2.907-2.252 2.907-2.252s-.055.853-1.563 2.208c1.115-.142 2.558-2.262 2.558-2.262s-.525 1.584-1.793 2.71c1.093-.11 2.853-2.82 2.853-2.82s-.678 1.88-2.055 2.973c1.53.339 3.738-1.945 3.738-1.945s-.864 1.617-2 2.284c1.267.48 3.005-1.52 3.005-1.52s-1.738 2.678-4.503 2.558c-.907-.044-3.65-2.754-9.53-2.536C8 11.81 6.361 15.11 2.208 17.34z" fill="#373535" fill-opacity=".35"/><path d="M2.383 17.01c4.382-4.382 7.88-5.737 11.06-6.349.415-.076.502-1.005.502-1.005s.055.677.35.765c.295.087.678-1.06.678-1.06s-.35 1.027 0 1.093c.35.054 1.005-1.006 1.005-1.006s-.262.907-.087.973c.175.054 1.06-1.323 1.06-1.323s-.525.907-.033 1.006c.503.087 1.235-.623 1.235-.623s-.568.645-.317.743c1.093.383 1.967-1.027 1.967-1.027s-.207.623-.732 1.3c1.148.295 2-1.431 2-1.431l-.852 1.726c.437.24 2.207-1.792 2.207-1.792s-.907 1.585-1.442 1.913c.295.207 1.355-.733 1.355-.733s-.853 1.06-.525 1.115c.47.383 2.208-1.967 2.208-1.967s-.689 1.388-1.683 2.47c.83.415 2.918-2.262 2.918-2.262s-.055.852-1.563 2.207c1.115-.142 2.557-2.262 2.557-2.262s-.524 1.585-1.792 2.71c1.093-.109 2.852-2.82 2.852-2.82s-.677 1.88-2.054 2.973c1.53.34 3.737-1.945 3.737-1.945s-.863 1.617-2 2.284c1.268.48 3.006-1.52 3.006-1.52s-1.738 2.678-4.503 2.558c-.907-.043-3.65-2.754-9.53-2.535-7.781.295-9.431 3.585-13.584 5.825z" fill="#373535"/><path d="M2.098 17.82c2.317 1.158 4.438-.175 7.104.579 2.033.568 4.503 1.278 7.858.787 3.355-.481 6.219-1.946 7.596-4.547.426-1.158 2.164.263 2.164.263s-1.268-.525-1.235-.285c.032.252 1.901 1.115 1.901 1.115s-1.694-.524-1.584-.131c.098.393 2.12 1.99 2.12 1.99s-2.306-1.728-2.492-1.487c-.197.24.973 1.191.973 1.191s-1.924-1.191-2.601-.842c-.492.252 2 1.88 2 1.88s-1.618-1.235-2-.907c-.383.328 1.825 2.973 1.825 2.973s-2.514-2.71-2.765-2.58c-.252.132.688 1.432.688 1.432s-1.224-1.355-1.563-1.125c-.338.24 1.771 3.748 1.771 3.748s-2.284-3.595-3.235-2.994c1.475 3.246.929 3.705.929 3.705s-.186-3.312-2.033-3.224c-.929.043.437 2.47.437 2.47s-1.256-2.22-2.098-2.175c1.541 2.929.994 4.109.994 4.109s.252-2.503-1.835-3.89c.797.71-.503 3.89-.503 3.89s1.136-4.689-.842-3.792c-.317.142-.022 2.338-.022 2.338s-.393-2.513-.994-2.382c-.35.076-2.208 3.486-2.208 3.486s1.52-3.683 1.06-3.53c-.338.11-.972 1.629-.972 1.629s.306-1.498 0-1.585c-.306-.088-2.033 1.585-2.033 1.585s1.278-1.498 1.06-1.815c-.339-.47-.721-.491-1.191-.306-.678.263-1.585 1.498-1.585 1.498s.907-1.257.754-1.716c-.251-.754-2.863 1.453-2.863 1.453s1.54-1.453 1.19-1.77c-.349-.306-2.272-.219-2.862-.219-1.76.022-2.372-.393-2.908-.82z" fill="#373535" fill-opacity=".35"/><path d="M2 17.557c2.317 1.159 4.437-.174 7.104.58 2.033.568 4.503 1.278 7.858.787 3.355-.481 6.218-1.946 7.595-4.547.427-1.158 2.164.262 2.164.262s-1.268-.524-1.235-.284c.033.252 1.902 1.115 1.902 1.115s-1.694-.525-1.585-.131c.099.393 2.12 1.989 2.12 1.989s-2.284-1.738-2.47-1.497c-.185.24.973 1.19.973 1.19s-1.923-1.19-2.6-.84c-.493.25 2 1.88 2 1.88s-1.618-1.236-2-.908c-.383.328 1.824 2.973 1.824 2.973s-2.502-2.71-2.754-2.58c-.251.132.689 1.432.689 1.432S22.339 17.634 22 17.863c-.339.24 1.76 3.749 1.76 3.749s-2.285-3.606-3.225-3.005c1.487 3.256.93 3.715.93 3.715s-.186-3.311-2.033-3.224c-.93.044.437 2.47.437 2.47s-1.246-2.207-2.088-2.164c1.541 2.93.995 4.11.995 4.11s.251-2.503-1.836-3.891c.798.71-.503 3.89-.503 3.89s1.137-4.688-.841-3.792c-.317.142-.022 2.34-.022 2.34s-.394-2.515-.995-2.383c-.35.076-2.207 3.486-2.207 3.486s1.519-3.683 1.06-3.53c-.34.11-.973 1.628-.973 1.628s.306-1.497 0-1.584c-.306-.088-2.033 1.584-2.033 1.584s1.279-1.497 1.06-1.814c-.338-.47-.721-.492-1.19-.306-.679.262-1.586 1.497-1.586 1.497s.907-1.256.754-1.715c-.25-.755-2.863 1.453-2.863 1.453s1.541-1.453 1.191-1.77c-.35-.306-2.273-.219-2.863-.219-1.781.01-2.393-.404-2.929-.83z" fill="#373535"/></svg>