<svg width="32" height="32" fill="none" xmlns="http://www.w3.org/2000/svg"><path d="M25.373 19.122c0 1.243-.654 1.852-1.874 1.874H8.501c-1.22-.022-1.877-.631-1.877-1.874 0-1.242.657-1.853 1.877-1.874h14.998c1.22.02 1.874.632 1.874 1.874zM23.5 21.936H8.501c-1.22.02-1.877.631-1.877 1.874 0 1.242.657 1.85 1.877 1.873h14.998c1.22-.022 1.874-.63 1.874-1.873 0-1.243-.654-1.854-1.874-1.874zm4.688-10.312c-1.22.02-1.874.63-1.874 1.874V23.81c0 1.242.654 1.85 1.874 1.873C30.017 25.62 31 23.792 31 20.063v-4.69c0-2.485-.982-3.705-2.813-3.748zm-24.374 0C1.983 11.667 1 12.887 1 15.372v4.687c0 3.73.982 5.556 2.813 5.622 1.22-.02 1.874-.631 1.874-1.874V13.498c0-1.245-.654-1.854-1.874-1.874zm24.374-.94c0-3.108-1.637-4.631-4.688-4.684H8.501c-3.051.053-4.688 1.576-4.688 4.685 1.829.03 2.811.944 2.811 2.81 0 1.867.983 2.779 2.814 2.811H22.57c1.828-.032 2.81-.947 2.81-2.81 0-1.864.983-2.778 2.814-2.811h-.007z" fill="#E42528"/></svg>