<svg width="96" height="96" viewBox="0 0 96 96" fill="none" xmlns="http://www.w3.org/2000/svg">
	<path d="M95.974 43.876C95.962 43.694 95.928 43.52 95.868 43.348C95.846 43.284 95.83 43.222 95.802 43.16C95.706 42.952 95.584 42.756 95.416 42.59C95.414 42.588 95.414 42.588 95.414 42.588L84 31.172V20C84 19.956 83.978 19.918 83.974 19.874C83.962 19.698 83.928 19.528 83.872 19.36C83.85 19.296 83.834 19.234 83.804 19.172C83.706 18.96 83.584 18.758 83.412 18.586L65.412 0.586C65.24 0.414 65.038 0.29 64.824 0.194C64.764 0.166 64.704 0.15 64.642 0.13C64.472 0.07 64.298 0.036 64.116 0.026C64.078 0.02 64.042 0 64 0H14C12.896 0 12 0.896 12 2V31.172L0.586 42.586C0.586 42.586 0.584 42.588 0.582 42.59C0.414 42.758 0.294 42.954 0.198 43.16C0.17 43.222 0.154 43.284 0.132 43.348C0.072 43.52 0.036 43.694 0.026 43.876C0.022 43.92 0 43.956 0 44V82C0 83.104 0.896 84 2 84H12V94C12 95.104 12.896 96 14 96H82C83.104 96 84 95.104 84 94V84H94C95.104 84 96 83.104 96 82V44C96 43.956 95.978 43.92 95.974 43.876ZM89.172 42H84V36.828L89.172 42ZM77.172 18H66V6.828L77.172 18ZM16 4H62V20C62 21.104 62.896 22 64 22H80V32V42H16V32V4ZM12 36.828V42H6.828L12 36.828ZM80 92H16V84H80V92ZM92 80H4V46H14H82H92V80Z" fill="black" />
	<path d="M33.3164 54.1152C31.9453 54.1152 30.8613 54.918 30.0645 56.5234C29.2793 58.1289 28.8867 60.3613 28.8867 63.2207C28.8867 69.1738 30.4395 72.1504 33.5449 72.1504C34.9043 72.1504 36.3281 71.7168 37.8164 70.8496V75.1035C36.5625 75.9355 34.957 76.3516 33 76.3516C30.1055 76.3516 27.8789 75.2031 26.3203 72.9062C24.7734 70.5977 24 67.3574 24 63.1855C24 59.0137 24.7969 55.7617 26.3906 53.4297C27.9961 51.0977 30.2227 49.9316 33.0703 49.9316C34.0078 49.9316 34.9043 50.0605 35.7598 50.3184C36.627 50.5762 37.5527 51.0273 38.5371 51.6719L36.9551 55.5566C36.4277 55.1934 35.8652 54.8652 35.2676 54.5723C34.6699 54.2676 34.0195 54.1152 33.3164 54.1152Z" fill="black" />
	<path d="M53.5221 68.916C53.5221 71.3184 52.9127 73.1582 51.694 74.4355C50.487 75.7129 48.7409 76.3516 46.4557 76.3516C44.2174 76.3516 42.3131 75.9121 40.7428 75.0332V70.3047C42.6647 71.5586 44.4284 72.1855 46.0338 72.1855C46.9479 72.1855 47.6334 71.9336 48.0905 71.4297C48.5592 70.9258 48.7936 70.2402 48.7936 69.373C48.7936 68.5176 48.5182 67.7383 47.9674 67.0352C47.4166 66.3203 46.5084 65.5293 45.2428 64.6621C44.1413 63.9004 43.3034 63.1738 42.7291 62.4824C42.1666 61.7793 41.7272 60.9941 41.4108 60.127C41.1061 59.2598 40.9538 58.252 40.9538 57.1035C40.9538 54.9004 41.5631 53.1543 42.7819 51.8652C44.0123 50.5762 45.6588 49.9316 47.7213 49.9316C49.6901 49.9316 51.5827 50.4824 53.3991 51.584L51.817 55.416C51.2545 55.0879 50.6627 54.7949 50.0416 54.5371C49.4323 54.2793 48.776 54.1504 48.0729 54.1504C47.2995 54.1504 46.7018 54.4082 46.2799 54.9238C45.8698 55.4277 45.6647 56.1191 45.6647 56.998C45.6647 57.8652 45.9108 58.6211 46.403 59.2656C46.9069 59.9102 47.7799 60.6426 49.0221 61.4629C50.6979 62.5879 51.8639 63.7363 52.5202 64.9082C53.1881 66.0801 53.5221 67.416 53.5221 68.916Z" fill="black" />
	<path d="M68.1028 50.3008H72.9192L66.8723 76H60.7903L54.7786 50.3008H59.595L62.9524 65.998C63.2571 67.334 63.5559 69.25 63.8489 71.7461C64.095 69.625 64.4055 67.709 64.7805 65.998L68.1028 50.3008Z" fill="black" />
</svg>
	