<svg width="32" height="32" fill="none" xmlns="http://www.w3.org/2000/svg"><g clip-path="url(#clip0)"><path d="M30.723 22.795a.801.801 0 01.247.576.841.841 0 01-1.44.577.83.83 0 01-.248-.577.846.846 0 01.847-.84.801.801 0 01.593.264zm.097-.098a.95.95 0 00-.697-.282.98.98 0 10.911 1.352.98.98 0 00-.214-1.07zm-.576.646a.492.492 0 01-.178 0h-.167v-.392h.161a.49.49 0 01.23.04.168.168 0 01.07.156.167.167 0 01-.087.201l-.029-.005zm-.541.576h.19v-.42h.15a.432.432 0 01.213.034.265.265 0 01.104.247v.144h.172a.115.115 0 010-.057v-.184a.3.3 0 00-.057-.168.27.27 0 00-.185-.103.447.447 0 00.156-.052.236.236 0 00.104-.213.266.266 0 00-.167-.271.837.837 0 00-.294-.04h-.375l-.011 1.083z" fill="#E71B2A"/><path d="M27.923 19.125a5.618 5.618 0 00-1.395-4.234c-1.238-1.33-3.33-2.466-7.633-2.73.225-.698.42-1.337.628-1.988 2.575.092 4.862.276 6.815.53.156-.697.236-1.383.398-2.04-.2-.288-.41-.568-.628-.84-.928-.11-1.85-.34-2.846-.467a51.685 51.685 0 00-4.275-.37c-.956 2.881-2.155 6.442-3.382 10.152 6.4.576 8.867 2.304 8.728 4.712a3.14 3.14 0 01-2.909 2.65c-1.878.127-2.742-.633-3.307-1.463-.565-.83-.99-1.498-1.52-2.304-.145-.242-.335-.087-.508.08l-1.152 1.1a.415.415 0 00-.104.577c.357.841.692 1.619 1.026 2.385.576.346 3.197.813 5.185.663a8.751 8.751 0 004.384-1.671 6.153 6.153 0 002.495-4.742z" fill="#fff"/><path d="M5.53 23.682c.245.335.506.657.783.968a54.77 54.77 0 007.858.76v-.898c-1.769-.098-2.581-.369-2.72-.72a3.73 3.73 0 01-.16-1.1 135.052 135.052 0 01-.133-8.59l3.001-.035c.502-.23.974-.455 1.47-.674v-1.025c-1.533 0-2.98.028-4.437.075.04-1.24.092-2.38.162-3.498a1.342 1.342 0 011.083-1.307c.806.027 1.594.24 2.304.622.403.196.801.386 1.21.576.196.052.432.098.576-.075l.714-.841c.133-.19.075-.3 0-.375a53.203 53.203 0 00-1.515-1.152 2.385 2.385 0 00-1.273-.253h-.576c-.724.048-1.442.166-2.143.351-2.305.622-5.081 2.23-5.375 4.863a45.6 45.6 0 00-.098 1.296l-1.803.155c-.04.502-.07.986-.093 1.498l1.82-.092a59.793 59.793 0 00.254 8.066c.057.337.068.68.035 1.02-.012.287-.392.385-.945.385z" fill="#fff"/><path d="M26.73 8.657c-.161.657-.242 1.343-.397 2.04-1.948-.254-4.24-.438-6.816-.53-.207.65-.403 1.29-.628 1.988 4.304.264 6.395 1.4 7.634 2.736a5.618 5.618 0 011.394 4.234 6.153 6.153 0 01-2.512 4.736 8.75 8.75 0 01-4.384 1.67c-1.97.15-4.61-.322-5.185-.662-.334-.766-.668-1.544-1.026-2.385a.415.415 0 01.104-.576l1.152-1.1c.173-.167.363-.323.507-.081.53.818 1.026 1.567 1.521 2.305.496.737 1.423 1.59 3.307 1.463a3.14 3.14 0 002.91-2.65c.138-2.431-2.305-4.16-8.729-4.713 1.239-3.704 2.437-7.276 3.4-10.157 1.52.07 2.926.196 4.274.369.997.127 1.919.357 2.846.467A12.997 12.997 0 005.53 23.683c.576 0 .933-.122.974-.358.033-.34.022-.683-.035-1.02a59.796 59.796 0 01-.253-8.065l-1.82.092c0-.513.051-.99.091-1.498l1.804-.155c0-.438.057-.864.098-1.296.293-2.61 3.059-4.223 5.363-4.84.702-.185 1.42-.303 2.143-.351h.576c.44-.035.88.053 1.274.253.495.375.99.743 1.515 1.152.052.07.11.179 0 .375l-.715.841c-.138.173-.374.127-.576.075a17.627 17.627 0 00-1.21-.576 5.237 5.237 0 00-2.304-.622 1.342 1.342 0 00-1.083 1.307 100.852 100.852 0 00-.161 3.497c1.451-.04 2.88-.063 4.436-.075v1.026c-.502.225-.968.45-1.47.674l-3 .035c-.047 2.944 0 5.882.132 8.59a3.73 3.73 0 00.16 1.1c.145.351.951.616 2.72.72v.899a54.972 54.972 0 01-7.852-.755A12.997 12.997 0 0026.73 8.658z" fill="#E71B2A"/></g><defs><clipPath id="clip0"><path fill="#fff" d="M3 3h28.109v26H3z"/></clipPath></defs></svg>