<svg width="24" height="24" viewBox="0 0 24 24" fill="none" xmlns="http://www.w3.org/2000/svg">
<path d="M21 8L20.0441 6.94799L15.6566 2.88531L14.5 2.00002C14.5 2.00002 13.7255 2 13.3507 2H4.35004C3.97511 2 3 2.00002 3 2.00002C3 2.00002 3.0001 2.90264 3.0001 3.24994V20.75C3.0001 21.0974 3.00075 22 3.00075 22C3.00075 22 3.97511 22 4.35009 22H19.6504C20.0253 22 21.0001 22 21.0001 22C21.0001 22 21.0001 21.0974 21.0001 20.75V9.08328C21.0002 8.73603 21 8 21 8ZM13.8003 3.77072C14.0721 3.85751 14.2642 3.9531 14.3768 4.05713L18.7786 8.1328C18.8908 8.23705 18.994 8.41492 19.0877 8.66667H13.8003V3.77072ZM19.2004 20.3334H4.80004V3.66669H12.0001V9.08342C12.0001 9.43067 12.0001 10.3334 12.0001 10.3334C12.0001 10.3334 12.975 10.3334 13.3501 10.3334H19.2004V20.3334Z" fill="#999999" stroke="#999999" stroke-width="0.703125" stroke-linecap="square"/>
<path d="M6.60046 12.6002C6.60046 12.6002 6.59961 12.8949 6.59961 13.0167V13.85C6.59961 13.9716 6.60046 14.2665 6.60046 14.2665C6.60046 14.2665 6.91844 14.2665 7.04956 14.2665H16.9499C17.0811 14.2665 17.3996 14.2665 17.3996 14.2665C17.3996 14.2665 17.3996 13.9716 17.3996 13.85V13.0167C17.3996 12.8953 17.3996 12.6001 17.3996 12.6001C17.3996 12.6001 17.0809 12.6001 16.9499 12.6001H7.04956C6.91844 12.6001 6.60046 12.6002 6.60046 12.6002Z" fill="#999999" stroke="#999999" stroke-width="0.703125"/>
<path d="M6.60046 16.4C6.60046 16.4 6.59961 16.6947 6.59961 16.8165V17.6498C6.59961 17.7714 6.60046 18.0663 6.60046 18.0663C6.60046 18.0663 6.91844 18.0663 7.04956 18.0663H16.9499C17.0811 18.0663 17.3996 18.0663 17.3996 18.0663C17.3996 18.0663 17.3996 17.7714 17.3996 17.6498V16.8165C17.3996 16.6951 17.3996 16.3999 17.3996 16.3999C17.3996 16.3999 17.0809 16.3999 16.9499 16.3999H7.04956C6.91844 16.3999 6.60046 16.4 6.60046 16.4Z" fill="#999999" stroke="#999999" stroke-width="0.703125"/>
</svg>
