<svg width="32" height="32" fill="none" xmlns="http://www.w3.org/2000/svg"><path d="M5.238 19.168l-.138.377-.265-.097.138-.377.265.097zm-.138.377l-.206.56-.265-.097.206-.56.265.097zm-.206.56l-.033.052-.1-.1.133.048zm-.033.052l-.452.447-.199-.2.452-.447.199.2zm-.452.447l-.4.397-.2-.2.401-.397.199.2zm-.4.397a9.15 9.15 0 01-.101.098l-.196-.204.097-.094.2.2zm-.101.098c-.18.174-.217.209-.165.52l-.278.046c-.077-.458-.023-.51.247-.77l.196.204zm-.165.52c.042.25.126.506.256.755l-.25.131a2.798 2.798 0 01-.284-.84l.278-.046zm.256.755c.122.23.283.455.49.661l-.2.2a3.026 3.026 0 01-.54-.73l.25-.131zm.49.661c.263.265.694.593 1.142.763l-.099.264c-.49-.186-.958-.542-1.243-.828l.2-.199zm1.142.763c.312.119.63.16.896.042l.113.258c-.342.152-.733.107-1.108-.036l.1-.264zm.896.042l.272-.121-.08.288-.136-.038-.056-.13zm.193.167c-.036.128-.077.26-.125.391l-.266-.096c.045-.125.085-.25.118-.37l.273.075zm-.125.391a4.998 4.998 0 01-.151.372l-.258-.117c.053-.115.1-.233.143-.35l.266.095zm-.151.372c-.24.524.011.8.4.977l-.118.258c-.53-.243-.872-.623-.54-1.352l.258.117zm.4.977c.247.113.547.191.826.264l-.07.273c-.294-.076-.609-.159-.874-.28l.117-.257zm.826.264l.196.052-.071.272-.196-.051.071-.273zm.196.052c.337.09.918.257 1.44.29l-.017.283c-.548-.035-1.147-.207-1.494-.3l.071-.273zm1.44.29c.473.03.894-.05.992-.411l.272.072c-.144.536-.683.66-1.281.622l.018-.283zm.992-.411c.051-.192.081-.34.094-.486l.282.023c-.013.16-.046.322-.104.535l-.273-.072zm.094-.486c.012-.148.007-.29-.011-.472l.28-.027c.02.204.027.363.013.522l-.282-.023zm-.011-.472l.01-.071.13.057-.14.014zm.01-.071c.191-.425.27-.54.408-.742l.233.159c-.128.187-.2.294-.382.698l-.258-.115zm.408-.742l.062-.091.234.158-.063.092-.233-.16zm.062-.091c.108-.16.157-.267.173-.378l.28.039c-.023.158-.086.298-.22.497l-.233-.158zm.173-.378c.017-.116 0-.255-.025-.467l.28-.032c.028.233.046.385.025.538l-.28-.04zm-.025-.467a10.256 10.256 0 00-.017-.133l.28-.036.017.137-.28.032zm-.017-.133l-.02-.14.28-.04.02.144-.28.036zm-.02-.14l-.027-.188.188.028-.02.14-.14.02zm.161-.16c.4.06.793.09 1.183.092l-.001.283a8.58 8.58 0 01-1.224-.096l.042-.28zm1.183.092c.392.003.781-.022 1.174-.07l.033.28a9.32 9.32 0 01-1.208.073l.001-.283zm1.174-.07l.087.262-.07-.122-.017-.14zm.087.262c-.228.133-.456.25-.746.4l-.13-.252c.287-.148.512-.263.735-.393l.141.245zm-.746.4c-.022.01-.043.022-.065.033l-.13-.252.065-.033.13.252zm-.065.033c-.299.154-.302.476-.196.814l-.27.084c-.144-.463-.125-.913.336-1.15l.13.252zm-.196.814c.12.383.374.786.533 1.032l-.236.154c-.168-.26-.436-.685-.567-1.102l.27-.084zm.533 1.032c.334.515.65.948 1.01 1.17l-.146.24c-.41-.25-.747-.711-1.1-1.256l.236-.154zm1.01 1.17c.343.21.742.229 1.271-.058l.134.25c-.632.343-1.122.312-1.551.049l.147-.241zm1.271-.058c.25-.135.334-.282.447-.48l.247.14c-.137.239-.238.416-.56.59l-.134-.25zm.447-.48c.045-.079.095-.165.167-.273l.234.157a4.152 4.152 0 00-.154.255l-.247-.139zm.167-.273l.05-.046.067.124-.117-.078zm.05-.046c.082-.045.434-.337.777-.62l.18.218c-.354.293-.719.594-.822.65l-.136-.248zm.777-.62c.177-.146.351-.29.442-.363l.177.221c-.165.134-.301.246-.438.36l-.18-.218zm.442-.363l.108-.087.09.107-.11.09-.088-.11zm.197.02c.057.068.146.11.267.139l-.065.275c-.18-.044-.32-.113-.42-.233l.218-.18zm.267.139c.14.033.322.05.544.065l-.02.283a3.814 3.814 0 01-.59-.073l.066-.275zm.544.065c.173.013.728.012 1.087.012v.283c-.367 0-.933 0-1.107-.012l.02-.283zm1.087.012h.264l-.001.283h-.264v-.283zm.264 0c.334.003.599-.012.773-.111l.14.246c-.231.13-.536.15-.914.148l.001-.282zm.773-.111c.16-.09.256-.269.28-.602l.283.02c-.032.442-.178.689-.423.828l-.14-.246zm.28-.602a1.304 1.304 0 00-.004-.361l.276-.061c.027.124.025.245.01.442l-.282-.02zm-.004-.361a1.255 1.255 0 00-.149-.328l.248-.138c.097.172.15.281.177.405l-.276.06zm-.149-.328l-.017-.066.14-.003-.123.069zm-.017-.066l-.017-.609.283-.006.016.609-.282.006zm-.017-.609l-.016-.608.283-.007.016.609-.283.006zm-.016-.608a2.5 2.5 0 00-.072-.563l.273-.069c.049.191.075.386.082.625l-.283.007zm-.072-.563a3.912 3.912 0 00-.196-.55l.26-.11c.093.219.161.401.21.591l-.274.069zm-.196-.55c-.062-.148-.115-.29-.167-.431l.265-.097c.05.133.1.27.163.418l-.261.11zm.098-.529l-.132.05.132-.05zm-.265.099c-.08-.218-.16-.43-.274-.657l.253-.127c.12.238.202.458.286.685l-.265.099zm-.274-.657l-.013-.088.14.024-.127.064zm-.013-.088c.014-.079.026-.152.034-.218l.28.035a5.705 5.705 0 01-.036.232l-.278-.049zm.034-.218c.009-.06.017-.136.025-.228l.283.023a5.567 5.567 0 01-.028.24l-.28-.035zm.025-.228l.026-.296.213.206-.098.102-.141-.012zm.239-.09l.416.4-.196.204-.415-.4.195-.204zm.416.4l.31.3-.195.204-.311-.3.196-.204zm.31.3c.224.215.43.412.656.546l-.143.244c-.255-.15-.471-.358-.708-.586l.195-.205zm.656.546c.219.129.466.203.786.188l.013.283a1.624 1.624 0 01-.942-.227l.143-.244zm.786.188c.346-.016.719-.164 1.03-.393l.167.227c-.353.26-.783.43-1.184.449l-.013-.283zm1.03-.393c.295-.219.532-.509.627-.824l.271.082c-.114.376-.389.717-.73.97l-.169-.228zm.627-.824l.1-.327.27.082-.099.327-.27-.082zm.1-.327l.115-.38.27.082-.115.38-.27-.082zm.115-.38l.037-.121.124.023-.026.139-.135-.04zm.161-.098a6.287 6.287 0 001.796.084l.027.28a6.572 6.572 0 01-1.875-.086l.052-.278zm1.796.084c.526-.056 1.034-.19 1.47-.422l.133.25c-.469.25-1.013.393-1.576.452l-.027-.28zm1.47-.422a3.693 3.693 0 001.465-1.444l.246.14a3.975 3.975 0 01-1.578 1.553l-.133-.25zm1.465-1.444l.123.07-.123-.07zm0 0c.395-.685.617-1.492.701-2.324l.28.027c-.088.871-.32 1.719-.735 2.438l-.246-.142zm.701-2.324c.069-.678.03-1.602-.111-2.496l.278-.044c.146.917.184 1.867.114 2.567l-.281-.027zm-.111-2.496c-.125-.788-.331-1.551-.615-2.095l.25-.13c.299.57.514 1.364.643 2.18l-.278.045zm-.615-2.095a.573.573 0 00-.107-.136l.198-.202a.863.863 0 01.16.208l-.251.13zm-.107-.136a1.35 1.35 0 00-.488-.297l.092-.267c.226.078.446.216.594.362l-.198.202zm-.488-.297c-.173-.06-.347-.076-.472-.01l-.13-.251c.2-.105.454-.089.694-.006l-.092.267zm-.472-.01a.287.287 0 00-.072.053l-.202-.198a.574.574 0 01.144-.106l.13.25zm-.072.053a3.02 3.02 0 00-.319.414l-.233-.16c.11-.16.22-.32.35-.452l.202.198zm-.319.414c-.133.195-.268.391-.442.54l-.183-.216c.147-.125.27-.305.392-.483l.233.159zm-.442.54c-.213.182-.46.281-.689.373l-.105-.263c.209-.084.433-.174.61-.325l.184.215zm-.689.373l-.104.042-.107-.262.106-.043.105.263zm-.104.042l-.135.056-.051-.138.133-.049.053.13zm-.186-.082a3.635 3.635 0 00-.334-.675l.24-.15c.14.222.26.46.359.727l-.265.098zm-.334-.675a5.347 5.347 0 00-.443-.6l.217-.18c.172.205.329.41.466.63l-.24.15zm-.443-.6a2.309 2.309 0 00-.38-.363l.17-.224c.149.113.286.239.427.406l-.217.182zm-.38-.363a6.12 6.12 0 00-.458-.304l.15-.24c.178.11.33.206.478.32l-.17.224zm-.458-.304c-.493-.31-.906-.672-1.328-1.041l.186-.214c.413.362.817.717 1.292 1.015l-.15.24zM23.137 8.05a23.262 23.262 0 00-.556-.478l.18-.219c.185.153.374.319.562.483l-.186.214zm-.556-.478c-.934-.77-1.799-1.143-2.718-1.201l.018-.283c.98.062 1.897.455 2.88 1.265l-.18.219zm-2.718-1.201c-.925-.058-1.914.2-3.088.695l-.11-.26c1.214-.512 2.242-.78 3.216-.718l-.018.283zm-3.088.695a4.367 4.367 0 00-1.318.835l-.191-.207c.379-.35.814-.642 1.4-.889l.109.261zm-1.318.835c-.358.332-.666.723-1.011 1.184l-.227-.169c.354-.473.67-.874 1.047-1.222l.19.207zm-1.011 1.184l-.04.054-.066.003-.007-.141.113.084zm-.106.057c-.197.01-.361.034-.525.1l-.105-.263c.198-.08.39-.108.615-.12l.015.283zm-.525.1a1.909 1.909 0 00-.548.363l-.186-.212c.236-.209.433-.336.629-.414l.105.263zm-.548.363c-.161.142-.319.288-.474.438l-.196-.203c.155-.15.316-.3.484-.447l.186.212zm-.474.438l-.098-.102.098.102zm0 0c-.153.149-.303.3-.45.453l-.204-.195c.15-.156.302-.31.458-.462l.196.205zm-.45.453l-.08.042-.022-.14.102.098zm-.08.042c-1.105.176-2.001.37-2.801.679l-.102-.264c.818-.317 1.732-.514 2.859-.694l.044.279zm-2.801.679c-.793.307-1.493.73-2.213 1.369l-.187-.212c.747-.662 1.474-1.102 2.298-1.421l.102.264zm-2.213 1.369a5.77 5.77 0 00-.763.818l-.224-.171a6.05 6.05 0 01.8-.86l.187.213zm-.763.818a6.05 6.05 0 00-.574.915l-.251-.129a6.34 6.34 0 01.601-.957l.224.171zm-.574.915l-.02.03-.106-.095.126.064zm-.02.03c-.161.178-.322.358-.494.513l-.189-.211c.166-.15.32-.322.473-.491l.21.189zm-.494.513c-.18.162-.376.3-.602.387l-.102-.264c.189-.072.357-.192.515-.334l.189.21zm-.602.387l-.05-.132.05.132zm0 0c-.182.07-.27.105-.371.062l.11-.26c.004.002.05-.023.16-.066l.1.264zm-.371.062l.054-.13-.054.13zm0 0c-.107-.045-.136-.132-.202-.307l.265-.099c.037.1.037.142.047.146l-.11.26zm-.202-.307l-.037-.099.085-.064.085.114-.133.049zm.048-.163c.26-.195.285-.584.308-.958l.283.018c-.028.437-.056.892-.422 1.167l-.169-.227zm.308-.958c.003-.05.006-.098.01-.135l.282.02-.009.133-.283-.018zm.01-.135l.01-.138.137.006-.006.142-.142-.01zm.147-.132c.233.012.34.176.454.354l-.237.152c-.073-.113-.141-.218-.23-.223l.013-.283zm.454.354c.032.05.065.1.1.144l-.22.176a1.83 1.83 0 01-.117-.168l.237-.152zm.128.262l-.065.29-.184-.232.11-.088.139.03zm-.276-.06c.047-.214.084-.494.032-.723l.275-.062c.063.28.023.603-.031.845l-.276-.06zm.032-.723c-.033-.146-.103-.271-.234-.339l.13-.252c.216.112.33.306.38.529l-.276.062zm-.234-.339l-.112-.058.044-.117.133.05-.065.125zm-.068-.175l.083-.213.263.103c-.025.062-.05.125-.08.208l-.266-.098zm.083-.213c.041-.107.084-.216.13-.344l.267.093c-.04.115-.088.236-.134.354l-.263-.103zm.24-.437l.236-.04-.08.226-.133-.046-.024-.14zm.047.279c-.274.048-.877.386-1.315.84l-.204-.195c.477-.496 1.156-.869 1.471-.924l.048.279zm-1.315.84a2.014 2.014 0 00-.378.524l-.256-.118c.1-.214.252-.417.43-.601l.204.195zm-.378.524a.875.875 0 00-.088.521l-.279.048c-.04-.233.007-.465.11-.687l.257.118zm-.088.521a.85.85 0 00.269.465l-.196.205a1.127 1.127 0 01-.352-.622l.279-.048zm.269.465l.039.069-.137.033.098-.102zm.039.069c.036.146.068.27.103.38l-.27.085a6.62 6.62 0 01-.107-.398l.274-.067zm.103.38c.033.108.07.204.116.299l-.255.121a2.467 2.467 0 01-.13-.335l.269-.084zm.116.299a.74.74 0 00.448.4l-.086.27a1.018 1.018 0 01-.617-.549l.255-.121zm.448.4c.216.07.468.048.703-.044l.103.263c-.294.115-.613.14-.892.05l.086-.27zm.703-.044l.245-.095-.056.256-.138-.03-.051-.13zm.19.162a5.545 5.545 0 00-.12.987l-.284-.01c.014-.378.057-.714.127-1.037l.276.06zm-.12.987c-.014.362 0 .768.04 1.245l-.282.023c-.042-.484-.056-.9-.042-1.278l.283.01zm.04 1.245c.01.12.023.233.038.335l-.28.037a6.613 6.613 0 01-.04-.35l.282-.022zm.038.335c.015.113.035.228.057.345l-.277.053a7.243 7.243 0 01-.06-.36l.28-.038zm.057.345l-.006.075-.132-.048" fill="#000"/><path fill-rule="evenodd" clip-rule="evenodd" d="M12.318 10.625l-1.861.302-1.7.745-1.442.907-1.373 1.676-.775.821-.75.277-.199-.485.347-.5.078-.707.232.01.254.231-.068-.719-.282-.189.009-.274-.667.377-.603.712-.126.637.258.51.24.865.49.232.515-.025.489-.284-.326 1.652.326 1.839-.359.849-1.174 1.265.208.756.557.876 1.049.738.556.077.62.02-.387 1.585 1.42.582 1.768.233.605-.396.047-1.07.675-1.117.046-.884 1.629.116 1.512-.14-1.512.908.256 1.093.954 1.49.93.395.745-.302.303-.605 1.56-1.187.302.256 2.443.093.489-.395.046-.699-.163-.302-.116-1.885-.815-1.629.14-.721.489.256 1.373 1.28.675.046.744-.302.745-.559.372-1.21 2.188.14 1.326-.512 1.07-1 .768-1.444.186-1.698-.163-1.978-.418-1.769-.42-.558-.58-.187-1.025 1.117-.93.326-.815-1.35-.815-.744-.442-.28-1.768-1.465-1.42-.768-1.42-.117-1.651.28-1.443.535-1 .814-.792.954-.814.233-1.42 1.35z" fill="#FF0" stroke="#1F1917" stroke-width=".216" stroke-miterlimit="10"/><path fill-rule="evenodd" clip-rule="evenodd" d="M6.919 14.825c-1.595 1.86-1.24 4.115-.798 6.325l-.708-1.787-.26-1.64.074-1.675.67-1.602 1.006-1.49 1.564-1.303 1.713-.708 2.011-.26-1.862 2.123c-1.495.485-2.377.811-3.41 2.017z" fill="#FFC"/><path fill-rule="evenodd" clip-rule="evenodd" d="M14.426 9.158c-1.109 1.081-1.714 1.897-2.42 3.163-.504.906-1.07 1.779-1.6 2.672-.27.452-.295.831-.375 1.353l-.782-.931.373-1.118 1.266-2.272 2.681-2.644.857-.223zM19.9 6.476c-.887.333-2.362.443-2.464 1.462-.073.724.055 1.087.49 1.853-1.077-1.115-1.343-.942-3.426-.596l.894-1.266 1.564-.969 2.012-.446.93-.038z" fill="#FFC"/><path fill-rule="evenodd" clip-rule="evenodd" d="M22.35 20.261c.296.182.29.315.24.44l.7-.28.453-.609.337-.867-.43-.323-1.879.24-.14.38.04.54.18.32.28.139.22.02zm-.174-3.213c-.942.272-.934.347-1.213 1.281.367-.589.64-.886 1.213-1.28zm6.261-6.991c-.167.077-.33.114-.435.268-.225.33-.418.607-.79.838a2.463 2.463 0 01-.581.254c-.165.051-.264.005-.405.106l.25.044h.551l.68-.42.4-.42.33-.67zm-15 2.09c-.37 1.013-.694 1.882-1.255 2.8a8.381 8.381 0 001.567-2.31c.16-.34.19-.739.635-.59.02.34.092.68.112 1.02.241-1.727.92-2.449 2.498-3.119l-1.338.16-1.26.28-.62.9-.339.859zm3.058-.04c.34 1.602.83 3.14 1.043 4.767.139 1.057.154 1.565-.378 2.478-.582-.038-.943.028-1.505.212-2.24.734-3.524 1.813-5.033-.361l1.445.68 1.03-.202 1.82-1.059 1.418-.28.46-1.918-.34-2.539-.04-1.199.08-.58zm3.857 9.913c-.188 1.301.433 2 .176 2.36-.073.102-.171.28-.282.328-.393.174-.934-.032-.973.07h-1.3a62.26 62.26 0 00-.519-.22l.8-.94.78-1.698.499-1.72h.26l.56 1.82z" fill="#CC0"/><path fill-rule="evenodd" clip-rule="evenodd" d="M18.169 18.236c.105.59.288.731.566 1.303-.184.934-.482 2.043-.84 2.867a2.26 2.26 0 01-.538.807c-.45.453-.903.848-1.412 1.241-.367.283-.623.141-1.075.077-.192.349-.245.543-.6.72-.544.272-1.031-.315-1.458-.66l.925 1.446.64.6.54.08.719-.44.38-.72.799-.6.979-.839.62-.88.56-1.038.719-2.159.06-.82-.9-.399c-.22-.207-.464-.38-.684-.586zm-7.17 4.164c1.009 0 2.074-.057 2.998-.48.261-.393.52-.713.84-1.06-.292.55-.383.861-.46 1.48l-.3.44-2.279.06c-.246-.028-.493-.054-.74-.08a60.302 60.302 0 00-.079-.08l.02-.28zm-.14-.7l-.078-.71c-.173 1.038-.131 1.733-.609 2.662-.356.413-.795.79-1.298.99.042.255.055.414.03.601-.088.672-1.432.375-1.985.349l2.66.685.6-.24.2-1.16.56-1.039.1-.64-.18-1.498zM9.36 15.844c-.028.505-.06.715.162 1.16.283.567.63 1.098.937 1.658l.1-1.12-1.199-1.698zm-4.103 3.81l-.26.553c.239.802.45 1.31.904 2.01a1.499 1.499 0 01-.32.64 7.157 7.157 0 00-1.157-.078l1.339 1.04.66-.12.659-.66-.94-1.46-.885-1.925zM28.44 9.791c.272 1.224.623 2.352.59 3.605-.04 1.536-.34 3.478-1.763 4.404-1.595 1.038-3.466.547-5.216.103l2.138.879 1.999.1 1.359-.4 1.06-.88.799-1.678.3-1.939-.24-1.898-.44-1.879-.586-.417zM4.644 13.437c-.724.47-1.008.678-.929 1.55l.217.786.306.207.38.126.684-.162.352-1.091-.974.478h-.225l-.253-.388.307-.451.162-.857.208.063.252.199-.036-.451-.171-.289-.172-.144-.108.424zm16.241-6.881c.642.597 1.43 1.115 1.945 1.844.199.282.42.427-.004.825.447-.127.614-.113.972-.07.65.079 1.261 1.004 1.3 1.668-.008.062-.18.202-.684.341-.01.02-.285-.037-.278-.018.053.143.123.165.23.232.023.159.037.404.146.578.317-.005.626.03.936.09.105.174.09.347.08.52l.36-.06-.1-.819.32-.54-.46-1.039-.88-.84-.084-.003-.989-.607-1.613-1.32-1.197-.782zm1.082 4.924c-.034.06-.085.154-.15.22.267.253.4.422.494.78l-.907.45-.768.737c-.337-.181-.42-.32-.584-.666-.19.05-.37.098-.526.04.1.002.16-.023.26-.085l.488-.508.863-.653.565-.184c.072-.03.193-.101.265-.131z" fill="#CC0"/><path fill-rule="evenodd" clip-rule="evenodd" d="M22.802 12.383c-.962.518-1.884 1.04-2.376 2.024 0-1.25 1.254-1.8 2.376-2.024zm-2.567-2.457c-.715.487-1.22 1.47-1.157 2.428-.232-.83-.15-1.613.565-2.187l.361-.175.23-.066z" fill="#CC0"/><path fill-rule="evenodd" clip-rule="evenodd" d="M21.6 17.323c.148-.08.417-.19.564-.271-.152.026-.424.082-.576.107-.406.069-.454.166-.517.566l-.1.61c.08-.213.175-.46.268-.663.098-.215.153-.235.362-.349zm-7.53-10.29c.32-.48.503-.635.994-.938-.666.16-.793.284-.993.937zm-.104 1.053c.558-1.122.98-1.535 2.149-2.086-1.322.324-1.71.554-2.15 2.086zm-11.952 5.84c.122-.562.237-.774.583-1.235-.562.393-.635.554-.583 1.235zm12.51 9.403a570.88 570.88 0 00-.051-.409 3.223 3.223 0 01-.01-.696l.057-.722c-.07.244-.21.489-.28.733-.028.098-.052.178-.065.25a8.235 8.235 0 01-3.13.041c-.066-.387-.148-.79-.216-1.08-.02.324-.007 1.22-.009 1.721-.001.389-.018.522-.218.852-.188.31-.267.38-.53.903.022.33.023.548-.065.861-.146.52-1.616.117-2.004.011-.478-.13-1.465-.325-1.217-.962.219-.56.357-1.151.464-1.936-.875-1.26-1.69-2.988-1.845-4.519-.122-1.189-.049-1.92.208-2.647.408-1.152.978-2.15 1.893-2.953 1.234-1.082 2.388-1.517 4.194-1.792-.434.486-.864 1-1.332 1.552-.475.558-.757 1.121-1.058 1.732-.416.843-.407 1.164.145 1.904.475.638.732.926.939 1.55-.171.353-.234.651-.291 1.134.582.635 1.014 1.071 1.579 1.206.554.131 1.017.106 1.512-.148 1.101-.563 2.12-1.29 3.362-1.32.575-1.412.517-2.592.24-3.96-.188-.933-.263-1.816-.322-2.768-.233.98-.276 1.842-.104 2.818.209 1.176.37 2.476-.209 3.51-1.123.086-2.086.77-3.098 1.293-.407.211-.83.232-1.28.108-.418-.115-.7-.391-1.15-.91-.008-.522.11-.763.35-1.235.384-.758.809-1.464 1.275-2.21-.571.688-1.112 1.264-1.56 1.956-.173-.489-.418-.737-.825-1.288-.397-.538-.438-.773-.141-1.396.298-.625.552-1.175 1.06-1.724.878-.948 1.682-2.004 2.643-2.938.521-.507.733-.49 1.425-.594a24.241 24.241 0 001.873-.363c-.617.058-1.213.079-1.813.094h-.02c.59-.754.933-1.174 1.893-1.591 2.361-1.026 3.862-1.137 5.717.423.48.404.9.796 1.388 1.145-.177.015-.33.047-.53.126.245-.047.528 0 .782.046.072.046.145.092.22.136.344.203.54.315.772.639.247.343.451.685.632 1.063a5.203 5.203 0 00-.306-.105.66.66 0 00-.621.039l-.014.006a2.91 2.91 0 01-.683.23c.1.036.323.049.428.007a.311.311 0 01.043-.013.658.658 0 00-.017.638c.018.042.043.08.07.108-.09.034-.182.072-.277.113.44-.067.837-.079 1.267-.022.028.135.056.279.083.425a85.57 85.57 0 01-.16.012l-.013.001c-.203-.162-.43-.135-.739-.064-.94.214-.72.742-1.152 1.537.45-.549.416-1.123 1.148-1.297.17-.04.287-.09.403-.073-.208.104-.388.277-.46.479-.2.567-.076 1.045-.296 1.575.273-.473.29-.936.534-1.434.088-.18.414-.466.614-.47l.165-.004c.048.315.077.628.059.888a9.936 9.936 0 01-.231 1.447c.247-.318.36-.993.47-1.467.112-.495.084-1.088-.015-1.62-.136-.728.614-.61 1.05-.953.32-.253.54-.656.834-.941.292-.284.75.133.865.41.496 1.201.723 3.092.592 4.304-.148 1.36-.804 2.844-2.003 3.513-1.53.853-3.332.332-4.85-.18-.325-.109-.55-.268-.835-.448.078.35.113.72.01 1.069-.164.553-.429 1.459.323 1.626.286.063.416.054.82-.154a1.515 1.515 0 01-.717.014.466.466 0 01-.368-.32c.07.052.187.08.385.128.557.134 1.088-.134 1.192-.52.06-.226.05-.345.179-.652.115.035.234.068.356.097l-.207.675c-.179.584-.876 1.055-1.492 1.045-.57-.01-.931-.367-1.324-.717l-.79-.7a6.084 6.084 0 01-1.935-.972c.468.55.786.855 1.439 1.129-.095.968-.432 1.674-.719 2.601-.13.42-1.155 2.099-1.439 2.262-.203.117-1.471 1.186-1.71 1.327-.178.236-.334.562-.601.704-.815.43-1.338-.394-1.777-1.09-.2-.318-.753-1.232-.27-1.488.456-.242.712-.415 1.178-.72.069.124.186.244.263.369zm2.832 1.477c-.413.333-1.106.923-1.24.996-.245.364-.275.59-.665.8-1.162.629-1.778-.1-2.466-1.16-.328-.505-1.044-1.658-.284-2.049.32-.165.563-.288.805-.43-.797.1-1.58.101-2.394-.021.014.098.027.191.037.277.053.445.07.581-.171.94-.176.26-.244.337-.457.811.039.386.022.604-.087 1.008-.242.898-1.92.406-2.603.22-.823-.221-1.998-.429-1.516-1.486.113-.248.202-.501.268-.743-.719.318-1.718-.357-2.194-.834a2.754 2.754 0 01-.785-1.493c-.073-.435-.006-.433.305-.741l.852-.844.345-.937a6.795 6.795 0 01-.098-.696c-.083-.96-.055-1.644.082-2.273-.5.195-1.074.104-1.33-.427-.097-.202-.155-.408-.228-.707-1.117-1.075.976-2.485 1.586-2.591-.07.198-.146.38-.214.56.414.213.363.824.276 1.217-.15-.188-.232-.434-.45-.444-.033.444-.027.936-.374 1.197.103.274.097.274.39.162.414-.16.726-.515 1.04-.863a5.947 5.947 0 011.37-1.774c1.466-1.3 2.852-1.726 5.084-2.081.297-.31.604-.61.934-.9.446-.394.736-.476 1.159-.498.698-.935 1.248-1.586 2.387-2.065 2.388-1.005 4.034-1.054 5.95.526.634.523 1.174 1.073 1.87 1.509.352.22.604.379.871.697.336.4.61.8.801 1.316.247-.102.528-.198.756-.392.293-.25.48-.67.751-.945.36-.365 1.183.076 1.365.424.62 1.186.873 3.37.741 4.67-.162 1.605-.825 3.123-2.24 3.879-.962.513-2.253.56-3.358.352l-.214.707c-.215.706-1.054 1.283-1.787 1.318-.703.033-1.084-.33-1.546-.775l-.726-.699a5.254 5.254 0 01-.061.459c.19.376.282.707.445 1.095.18.427.267.707.28 1.164l.032 1.218c.18.322.197.4.17.768-.055.775-.483.85-1.195.845-.237-.002-1.132.004-1.36-.012-.454-.033-.753-.068-.91-.255zm2.4-4.232c-.143.512-.335.995-.511 1.548-.167.524-1.02 2.045-1.522 2.414.098.073.277.101.597.129.226.02 1.117.023 1.341.027.493.009.68-.028.73-.59.024-.274.002-.325-.135-.566l-.036-1.288c-.012-.407-.09-.642-.25-1.021-.096-.227-.148-.439-.214-.653zM4.75 13.547c.11-.012.179.046.264.131-.016-.204-.053-.355-.197-.439-.01.034-.02.067-.028.1-.018.066-.03.136-.04.208zm.695 1.476a10.923 10.923 0 00-.257.747c-.42.178-.974.292-1.185-.15a4.029 4.029 0 01-.236-.697c-.693-.717.343-1.665.907-2.005-.082.176-.14.309-.18.445-.171.593.078 1.122-.46 1.552.253.51.241.713.83.478.227-.091.414-.219.58-.37zm-.163 4.83c.32 1.103.862 2.187 1.464 3.098v.016c-.037.156-.081.309-.173.431-.43.576-1.524-.269-1.841-.593-.347-.353-.578-.772-.634-1.165-.04-.286 0-.293.199-.496.27-.273.54-.545.808-.818.06-.158.119-.315.177-.473zm20.377-8.852a.67.67 0 01.145.213.704.704 0 01.06-.048 7.226 7.226 0 00-.078-.168 2.61 2.61 0 00-.127.004zm-5.271 1.984a.86.86 0 01-.084-.364 2.653 2.653 0 01-.664.412c.322-.288.759-.965 1.075-1.18.36-.242.847-.195 1.266-.389-.143.13-.326.235-.513.335a.864.864 0 01.564.717 2.48 2.48 0 01.79-.133 4.927 4.927 0 00-2.335 1.509c.069-.19.165-.36.28-.513a.861.861 0 01-.379-.394zm-3.873-3.02c-.46.18-.881.314-1.331.427-.41.54-.66.819-.754 1.541-.111-.71-.135-.843.182-1.373-.092.046-.177.11-.3.215-.441.378-1.018 1.863-1.248 2.394.146-.64.604-2.237 1.075-2.702.31-.307.38-.3.817-.341.52-.05 1.04-.103 1.56-.162zm9.626 1.549c.374.035.588.093.923-.073.624-.309 1.084-.813 1.381-1.416-.182.72-.548 1.331-1.31 1.602-.373.133-.614-.004-.994-.113zm-7.18.07c.141-.624.391-1.225 1.36-1.69-1.284.321-1.525.86-1.36 1.69zm-16.66 3.362c.11-1.249.353-1.787 1.24-2.727-1.113.784-1.39 1.14-1.24 2.727z" fill="#000"/><path fill-rule="evenodd" clip-rule="evenodd" d="M20.556 13.186a.362.362 0 11.673-.259 2.3 2.3 0 00-.462.452.394.394 0 01-.211-.193zm4.022-1.556a.266.266 0 01.29-.244.272.272 0 01.22.385 2.332 2.332 0 00-.413.114.36.36 0 01-.097-.255z" fill="#FFC"/></svg>