<svg width="51" height="51" viewBox="0 0 51 51" fill="none" xmlns="http://www.w3.org/2000/svg">
  <path d="M25.1793 18.7795L19.9072 12.8191" stroke="#284A6A" stroke-width="0.993796" stroke-miterlimit="10" />
  <path d="M8.56277 14.194L12.6889 20.212" stroke="#284A6A" stroke-width="0.496894" stroke-miterlimit="10" />
  <path d="M19.9072 12.8191L18.6476 25.4265M25.1793 18.7795L30.3938 12.7615L25.1793 18.7795ZM31.4822 25.4248L37.6697 20.212L31.4822 25.4248ZM31.4822 25.4265L37.6697 30.8698L31.4822 25.4265ZM30.4515 37.7473L25.1793 31.9022L30.4515 37.7473ZM19.9072 37.7456L25.1793 31.9005L19.9072 37.7456ZM12.6873 30.641L18.6476 25.4265L12.6873 30.641ZM12.6873 20.212L18.6476 25.4265L12.6873 20.212ZM25.1793 18.7795L12.6873 20.212L25.1793 18.7795ZM25.181 18.7795L37.6714 20.212L25.181 18.7795ZM31.4822 25.4265L30.3938 12.7632L31.4822 25.4265ZM31.4822 25.4265L30.4515 37.7456L31.4822 25.4265ZM37.6714 30.8698L25.1793 31.9005L37.6714 30.8698ZM12.6873 30.641L25.181 31.9005L12.6873 30.641ZM19.9072 37.7456L18.6476 25.4265L19.9072 37.7456Z" stroke="#284A6A" stroke-width="0.993796" stroke-miterlimit="10" />
  <path d="M8.56279 14.1939L19.9089 12.8242M6.95742 21.8156L12.6873 20.212L6.95742 21.8156ZM13.8909 8.52172L19.9089 12.8191L13.8909 8.52172ZM21.2786 5.82971L19.9072 12.8208L21.2786 5.82971ZM21.2803 5.82971L30.3904 12.7632L21.2803 5.82971ZM29.019 5.82971L30.3904 12.7632L29.019 5.82971ZM36.4102 8.52172L30.3938 12.7632L36.4102 8.52172ZM41.7959 14.1956L30.3938 12.7632L41.7959 14.1956ZM37.6714 20.212L41.7959 14.1939L37.6714 20.212ZM37.6714 20.212L43.5148 21.8156L37.6714 20.212ZM37.6714 20.212L43.4013 28.922L37.6714 20.212ZM29.0207 5.82971L19.9089 12.8191L29.0207 5.82971ZM37.6714 20.212L36.4102 8.52172L37.6714 20.212ZM37.6714 30.8698L43.4013 28.9203L37.6714 30.8698ZM37.6714 30.8698L43.5148 21.8173L37.6714 30.8698ZM37.6714 30.8698L41.7976 36.4284L37.6714 30.8698ZM37.6714 30.8681L36.4102 42.1006L37.6714 30.8681ZM30.4515 37.7456L36.4102 42.1023L30.4515 37.7456ZM30.4515 37.7456L41.7959 36.4284L30.4515 37.7456ZM30.4515 37.7456L29.0783 44.7943L30.4515 37.7456ZM30.4515 37.7456L21.2837 44.7893L30.4515 37.7456ZM19.9106 37.7456L21.2837 44.7943L19.9106 37.7456ZM19.9072 37.7456L29.0766 44.7893L19.9072 37.7456ZM19.9072 37.7456L13.8909 42.1023L19.9072 37.7456ZM19.9089 37.7456L8.56279 36.4861L19.9089 37.7456ZM12.6873 30.6409L8.56279 36.4844L12.6873 30.6409ZM12.6873 30.6409L13.8909 42.1006L12.6873 30.6409ZM12.6873 30.6409L6.89978 28.8644L12.6873 30.6409ZM12.6873 20.212L6.89978 28.8644L12.6873 20.212ZM12.6873 30.6409L6.95742 21.8156L12.6873 30.6409ZM13.8909 8.52342L12.6873 20.212L13.8909 8.52342Z" stroke="#284A6A" stroke-width="0.496894" stroke-miterlimit="10" />
  <path d="M13.8908 8.52178L6.09792 9.95425M13.8908 8.52178L9.47819 6.4604L13.8908 8.52178ZM13.8908 8.52178L13.5484 3.70906L13.8908 8.52178ZM21.2837 5.82808L13.5467 3.70906L21.2837 5.82808ZM21.2837 5.82978L17.9611 1.76125L21.2837 5.82978ZM21.2837 5.82978L22.6551 0.95941L21.2837 5.82978ZM13.8908 8.52178L17.9594 1.76125L13.8908 8.52178ZM29.019 5.82978L22.6585 0.95941L29.019 5.82978ZM29.019 5.82978L27.5865 0.786499L29.019 5.82978ZM21.2837 5.82978L27.5865 0.786499L21.2837 5.82978ZM29.019 5.82978L32.3416 1.76125L29.019 5.82978ZM36.4101 8.52348L32.3416 1.76125L36.4101 8.52348ZM36.4118 8.52178L36.8119 3.70906L36.4118 8.52178ZM29.019 5.82808L36.8119 3.70906L29.019 5.82808ZM36.4101 8.52348L40.933 6.22985L36.4101 8.52348ZM36.4101 8.52178L44.2607 9.722L36.4101 8.52178ZM41.7959 14.194L44.2607 9.722L41.7959 14.194ZM41.7959 14.1957L40.9364 6.22985L41.7959 14.1957ZM41.7959 14.1957L46.9544 13.7939L41.7959 14.1957ZM41.7959 14.1957L48.8446 18.2066L41.7959 14.1957ZM43.5148 21.8157L46.9544 13.7939L43.5148 21.8157ZM43.5148 21.8157L48.8446 18.2049L43.5148 21.8157ZM43.5148 21.8157L49.4752 23.0193L43.5148 21.8157ZM43.4012 28.9221L49.4752 23.0193L43.4012 28.9221ZM43.4012 28.9221L49.6464 27.7761L43.4012 28.9221ZM43.5148 21.8157L49.6464 27.7744L43.5148 21.8157ZM43.4012 28.9221L48.7293 32.4735L43.4012 28.9221ZM41.7959 36.4285L48.7293 32.4735L41.7959 36.4285ZM41.7959 36.4285L46.8968 36.9472L41.7959 36.4285ZM43.4012 28.9255L46.8968 36.9472L43.4012 28.9255ZM41.7959 36.4285L44.2031 40.9496L41.7959 36.4285ZM41.7959 36.4285L40.8804 44.335L41.7959 36.4285ZM40.8804 44.335L36.4101 42.1007L40.8804 44.335ZM36.4101 42.1007L36.7543 47.0846L36.4101 42.1007ZM36.4101 42.1007L44.2031 40.9547L36.4101 42.1007ZM36.4101 42.1007L32.3416 48.9765L36.4101 42.1007ZM29.0766 44.7893L32.3382 48.9731L29.0766 44.7893ZM29.0766 44.7893L36.7543 47.0813L29.0766 44.7893ZM29.0749 44.7893L27.5848 49.9479L29.0749 44.7893ZM29.0766 44.7893L22.6585 49.9479L29.0766 44.7893ZM21.2837 44.7893L22.6551 49.9479L21.2837 44.7893ZM21.282 44.7893L27.5865 49.9479L21.282 44.7893ZM21.2837 44.7893L18.0204 48.9731L21.2837 44.7893ZM13.8942 42.1007L18.0204 48.9765L13.8942 42.1007ZM21.2837 44.7893L13.4908 47.1965L21.2837 44.7893ZM13.8908 42.1007L13.4908 47.1999L13.8908 42.1007ZM13.8908 42.1007L9.42224 44.5639L13.8908 42.1007ZM8.56277 36.4844L9.42224 44.5639L8.56277 36.4844ZM13.8908 42.1007L6.04198 41.0124L13.8908 42.1007ZM8.56277 36.4895L6.04198 41.0124L8.56277 36.4895ZM8.56277 36.4895L3.40591 37.0083L8.56277 36.4895ZM8.56277 36.4895L1.45641 32.5363L8.56277 36.4895ZM6.89806 28.8644L1.45641 32.5312L6.89806 28.8644ZM6.89806 28.8644L0.71051 27.7761L6.89806 28.8644ZM6.89976 28.8644L3.40421 37.0015L6.89976 28.8644ZM6.95739 21.8157L0.71051 27.7744L6.95739 21.8157ZM6.89976 28.8644L0.712205 23.0193L6.89976 28.8644ZM6.95739 21.8157L1.62762 18.2625L6.95739 21.8157ZM6.95739 21.8157L0.71051 23.0193L6.95739 21.8157ZM6.95739 21.8157L3.40421 13.7939L6.95739 21.8157ZM8.56277 14.194L3.40591 13.7939L8.56277 14.194ZM8.56277 14.1957L1.62932 18.2642L8.56277 14.1957ZM8.56277 14.1957L6.09792 9.95425L8.56277 14.1957ZM8.56277 14.1957L9.47819 6.4604L8.56277 14.1957Z" stroke="#24405D" stroke-width="0.38608" stroke-miterlimit="10" />
  <path d="M15.5776 28.4049L15.6217 22.3886L21.6482 22.431L21.6075 28.4473L15.5776 28.4049ZM22.1008 21.7699L22.1415 15.7518L28.1697 15.7959L28.1273 21.8122L22.1008 21.7699ZM22.1008 34.9824L22.1415 28.9661L28.1697 29.0084L28.1273 35.0265L22.1008 34.9824ZM28.6783 28.3473L28.7206 22.331L34.7471 22.3734L34.7065 28.3914L28.6783 28.3473Z" fill="#256EA5" />
  <path d="M28.3324 14.8585L28.3613 10.6747L32.562 10.7052L32.5247 14.8873L28.3324 14.8585ZM17.8306 14.8585L17.8594 10.6747L22.0601 10.7035L22.0296 14.8873L17.8306 14.8585ZM10.5581 22.3005L10.5886 18.1184L14.7876 18.1472L14.7588 22.331L10.5581 22.3005ZM10.553 32.8244L10.5971 28.6423L14.7978 28.6864L14.7537 32.8668L10.553 32.8244ZM35.6049 32.7431L35.6354 28.5593L39.8345 28.5898L39.8057 32.7719L35.6049 32.7431ZM35.6897 22.3446L35.7321 18.1625L39.9328 18.2065L39.8888 22.3887L35.6897 22.3446Z" fill="#3378BC" />
  <path d="M7.15236 15.5603L7.1727 12.809L9.91896 12.8276L9.89861 15.579L7.15236 15.5603ZM12.5211 9.96271L12.5415 7.21306L15.286 7.23171L15.2657 9.98305L12.5211 9.96271ZM19.9072 7.19441L19.9258 4.44307L22.6721 4.46172L22.6518 7.21306L19.9072 7.19441ZM5.5419 23.1769L5.56055 20.4256L8.28985 20.4443L8.26951 23.1956L5.5419 23.1769ZM40.4092 12.848L43.1605 12.8276L43.1775 15.5739L40.4278 15.5908L40.4092 12.848ZM35.0421 7.15542L37.7918 7.13678L37.8121 9.88134L35.0608 9.89999L35.0421 7.15542ZM27.6306 4.45664L30.3803 4.43799L30.4006 7.18255L27.6493 7.20119L27.6306 4.45664ZM42.0129 20.4578L44.7642 20.4375L44.7828 23.1837L42.0332 23.2007L42.0129 20.4578Z" fill="#169BD6" />
  <path d="M17.7746 39.9579L17.8034 35.7758L22.0042 35.8046L21.9737 39.9884L17.7746 39.9579ZM28.2765 39.9579L28.307 35.7758L32.5061 35.8046L32.4772 39.9884L28.2765 39.9579Z" fill="#3378BC" />
  <path d="M40.3905 37.8338L40.4109 35.0842L43.1554 35.1028L43.1368 37.8542L40.3905 37.8338ZM35.0845 43.4925L35.1048 40.7411L37.8511 40.7615L37.8307 43.5111L35.0845 43.4925ZM27.695 46.2014L27.7154 43.4501L30.4599 43.4687L30.4396 46.2201L27.695 46.2014ZM42.0061 30.2155L42.0264 27.4659L44.771 27.4862L44.7523 30.2359L42.0061 30.2155ZM7.15913 35.0825L9.91047 35.0639L9.92742 37.8084L7.17777 37.8271L7.15913 35.0825ZM12.5279 40.7174L15.2775 40.6988L15.2979 43.4433L12.5465 43.462L12.5279 40.7174ZM19.8801 43.4162L22.6314 43.3976L22.65 46.1421L19.9004 46.1608L19.8801 43.4162ZM5.55884 27.476L8.31018 27.4574L8.32883 30.202L5.57918 30.2206L5.55884 27.476Z" fill="#169BD6" />
  <path d="M46.1625 14.5316L46.1729 13.0414L47.6912 13.0525L47.6808 14.5427L46.1625 14.5316Z" fill="#00A8DA" />
  <path d="M48.1234 19.0314L48.1338 17.5413L49.6522 17.5524L49.6418 19.0426L48.1234 19.0314Z" fill="#00A8DA" />
  <path d="M43.5083 10.5488L43.5187 9.05859L45.0371 9.06971L45.0267 10.5599L43.5083 10.5488Z" fill="#00A8DA" />
  <path d="M8.71353 7.14436L8.72391 5.65417L10.2423 5.6653L10.2319 7.15548L8.71353 7.14436Z" fill="#00A8DA" />
  <path d="M0 23.7622L0.0103794 22.272L1.52874 22.2831L1.51836 23.7733L0 23.7622Z" fill="#00A8DA" />
  <path d="M40.1617 7.14473L40.1721 5.65454L41.6904 5.66566L41.68 7.15585L40.1617 7.14473Z" fill="#00A8DA" />
  <path d="M0.86557 19.0303L0.875949 17.5402L2.39431 17.5513L2.38393 19.0415L0.86557 19.0303Z" fill="#00A8DA" />
  <path d="M17.2521 2.52779L17.2625 1.0376L18.7808 1.04872L18.7704 2.53891L17.2521 2.52779Z" fill="#00A8DA" />
  <path d="M2.71161 14.5301L2.72199 13.0399L4.24035 13.051L4.22997 14.5412L2.71161 14.5301Z" fill="#00A8DA" />
  <path d="M5.42325 10.4914L5.43363 9.00122L6.95199 9.01234L6.94161 10.5025L5.42325 10.4914Z" fill="#00A8DA" />
  <path d="M12.78 2.95595L14.2702 2.94557L14.2813 4.46393L12.7912 4.47431L12.78 2.95595ZM21.9844 0.0274692L23.4745 0.0170898L23.4857 1.53545L21.9955 1.54583L21.9844 0.0274692Z" fill="#00A8DA" />
  <path d="M36.1219 4.49019L36.1323 3L37.6506 3.01112L37.6402 4.50131L36.1219 4.49019Z" fill="#00A8DA" />
  <path d="M48.8745 23.7059L48.8849 22.2157L50.4032 22.2268L50.3928 23.717L48.8745 23.7059Z" fill="#00A8DA" />
  <path d="M26.8319 1.49019L26.8423 0L28.3606 0.0111204L28.3503 1.50131L26.8319 1.49019Z" fill="#00A8DA" />
  <path d="M31.5634 2.47066L31.5738 0.980469L33.0922 0.991589L33.0818 2.48178L31.5634 2.47066Z" fill="#00A8DA" />
  <path d="M40.1602 45.113L40.1706 43.6228L41.689 43.6339L41.6786 45.1241L40.1602 45.113Z" fill="#00A8DA" />
  <path d="M48.8745 28.4948L48.8849 27.0046L50.4032 27.0158L50.3928 28.5059L48.8745 28.4948Z" fill="#00A8DA" />
  <path d="M8.71204 45.1123L8.72242 43.6221L10.2408 43.6332L10.2304 45.1234L8.71204 45.1123Z" fill="#00A8DA" />
  <path d="M48.1234 33.2843L48.1338 31.7941L49.6522 31.8052L49.6418 33.2954L48.1234 33.2843Z" fill="#00A8DA" />
  <path d="M31.5623 49.7868L31.5727 48.2966L33.0911 48.3077L33.0807 49.7979L31.5623 49.7868Z" fill="#00A8DA" />
  <path d="M46.161 37.7852L46.1714 36.295L47.6898 36.3062L47.6794 37.7964L46.161 37.7852Z" fill="#00A8DA" />
  <path d="M43.5076 41.8243L43.5179 40.3341L45.0363 40.3452L45.0259 41.8354L43.5076 41.8243Z" fill="#00A8DA" />
  <path d="M36.06 46.3979L37.5502 46.3875L37.5613 47.9059L36.0711 47.9163L36.06 46.3979ZM26.9124 49.2122L28.4025 49.2018L28.4137 50.7202L26.9235 50.7306L26.9124 49.2122Z" fill="#00A8DA" />
  <path d="M12.809 47.94L12.8193 46.4498L14.3377 46.4609L14.3273 47.9511L12.809 47.94Z" fill="#00A8DA" />
  <path d="M2.65417 37.7259L2.66455 36.2357L4.18292 36.2468L4.17254 37.737L2.65417 37.7259Z" fill="#00A8DA" />
  <path d="M0.864838 33.2835L0.875217 31.7933L2.39358 31.8045L2.3832 33.2946L0.864838 33.2835Z" fill="#00A8DA" />
  <path d="M5.36505 41.8232L5.37543 40.333L6.89379 40.3441L6.88341 41.8343L5.36505 41.8232Z" fill="#00A8DA" />
  <path d="M0 28.4941L0.0103794 27.0039L1.52874 27.015L1.51836 28.5052L0 28.4941Z" fill="#00A8DA" />
  <path d="M22.0414 50.7098L22.0518 49.2196L23.5702 49.2307L23.5598 50.7209L22.0414 50.7098Z" fill="#00A8DA" />
  <path d="M17.1946 49.7293L17.205 48.2391L18.7234 48.2503L18.713 49.7404L17.1946 49.7293Z" fill="#00A8DA" />
</svg>
  