<svg width="32" height="32" fill="none" xmlns="http://www.w3.org/2000/svg"><path d="M28.136 26.026a.857.857 0 01-.037-.221.947.947 0 00-.098-.326.84.84 0 00-.202-.256 2.098 2.098 0 01-.282-.361c-.14-.242-.295-.34-.867-.515-.573-.176-.819-.402-.878-.846l-.027-.221-.113.19c-.223.367-.373.423-.673.269a.493.493 0 00-.495-.036c-.1.051-.118.051-.187 0-.068-.052-.077-.073-.177 0a.298.298 0 01-.264.046c-.195-.036-.295.03-.427.263-.24.438-.413.237-.413-.485 0-.798.332-1.247 1.286-1.757.327-.128.62-.35.85-.644.109-.165.118-.175.163-.103.212.432.402.878.568 1.335.182.515.237.608.31.515a3.019 3.019 0 00-.36-1.19c-.585-1.506-1.638-2.714-2.958-3.396a2.946 2.946 0 00-1.613-.335 3.629 3.629 0 00-1.096.108 11.3 11.3 0 00-2 .727c-.813.36-.813.36-1.63.03a11.097 11.097 0 00-.882-.324 2.245 2.245 0 00-1.04-.036 4.02 4.02 0 00-1.246.752c-.416.38-.895.662-1.409.83-.386.113-.55.216-.645.392a.437.437 0 00-.027.407c.258.283.55.524.868.716.086.053.167.117.24.19-.315.246-.66.44-1.022.578-.94.37-1.917.612-2.909.721-.553.053-1.1.18-1.626.381a8.974 8.974 0 01-.814.248c-.859.2-1.636-.037-1.754-.516a.791.791 0 00-.086-.226 1.249 1.249 0 01-.114-.963c.055-.218.1-.438.132-.66a6.962 6.962 0 01.618-2.21 16.97 16.97 0 013.045-4.164 28.326 28.326 0 013.726-3.148c1.218-.923 1.232-.933 1.363-1.376.032-.098.182-.737.337-1.412.477-2.107.786-2.906 1.363-3.514.149-.167.327-.296.523-.378.195-.083.405-.117.613-.101.168.051.177.144.06.68a9.436 9.436 0 00-.264 2.257 3.13 3.13 0 00.204 1.458c.227.515.377.603 1.264.809 3.13.726 5.221 1.824 6.703 3.509 1.363 1.546 2.494 4.014 3.226 7.043l.136.577.268.227c.604.477 1.047 1.17 1.26 1.968.102.603.09 1.223-.037 1.82-.132.556-.245.788-.382.788a.117.117 0 01-.063-.035.144.144 0 01-.037-.068l.028-.01zm.059-1.164a3.872 3.872 0 000-.551 2.96 2.96 0 00-.737-1.928 3.501 3.501 0 00-1.24-.989c-.073 0-.078 0-.06.196.042.214.098.424.169.629.071.203.127.414.168.628 0 .165 0 .201-.073.289-.072.087-.213.134-.372 0-.069-.047-.128-.078-.137-.067a.495.495 0 000 .185c.05.32.214.454.85.665.932.314 1.123.459 1.273.953.027.103.122.083.15-.036l.009.026zM6.009 23.378c.246-.056.488-.128.727-.216a10.861 10.861 0 011.968-.464 12.61 12.61 0 002.326-.546c.245-.065.477-.182.682-.346a1.125 1.125 0 00-.236-.19 4.012 4.012 0 01-.532-.515 2.356 2.356 0 00-.332-.335 1.636 1.636 0 00-.6.38c-.809.676-1.095.81-2.39 1.124a2.989 2.989 0 00-1.168.448 2.123 2.123 0 01-1.313.5c-.368 0-.41.129-.064.196.304.033.61.012.909-.062l.023.026zm17.637-.083a.72.72 0 01.2-.144l.15-.077.327.113c.351.14.732.155 1.09.041l.21-.17a.247.247 0 01.181-.077h.068s-.5-1.334-.55-1.417l-.054-.098-.177.16c-.1.088-.432.33-.741.541-.79.515-1.036.814-.977 1.082 0 .082.045.103.123.103a.213.213 0 00.15-.067v.01zM8.74 20.982a.582.582 0 00.186-.155c.15-.278-.454-.247-.6.031-.045.078-.04.093 0 .15.041.056.223.082.41 0l.004-.026zm1.113-.876c.3-.082.594-.192.877-.33a1.55 1.55 0 00.6-.726c.064-.143.147-.273.246-.387a.557.557 0 00.136-.211c0-.31-.945-.453-1.559-.232-.736.268-1.445 1.123-1.463 1.768 0 .396.182.417 1.163.118zm14.542-1.226a2.151 2.151 0 00-.404-.608 3.368 3.368 0 00-1.309-.81c-.377-.164-.531-.262-.531-.34a.32.32 0 01.068-.118c.2-.221 1.154.057 1.817.515.294.21.57.452.823.722.19.206.223.227.223.15a2.39 2.39 0 00-.387-.805c-.6-.855-1.435-1.46-2.372-1.72a3.364 3.364 0 00-2.05-.037 5.091 5.091 0 00-1.785 1.263c-.43.468-.885.903-1.364 1.303a.78.78 0 00-.236.217.596.596 0 00.227.113l.214.083.527-.279a8.983 8.983 0 012.7-.984c1.205-.115 2.406.27 3.38 1.082.332.258.455.325.455.258l.005-.005zm-9.593 3.395a6.341 6.341 0 01-3.026-1.267c-.196-.155-.25-.222-.26-.31 0-.221.155-.35.641-.468a3.175 3.175 0 001.364-.778c.872-.696 1.217-.85 1.786-.815.452.064.894.199 1.313.402 1.322.516 2.727 1.062 2.827 1.14.24.174-.178.818-.828 1.277a4.972 4.972 0 01-1.817.763 9.836 9.836 0 01-1.99.056h-.01zm-8.253-6.23a2.499 2.499 0 010-.442c.075-.947.45-1.832 1.055-2.489.198-.214.435-.374.695-.469.118 0 .19.14.277.515.033.18.086.353.16.516.04.062.072.123.063.128l-.364.33a16.683 16.683 0 00-1.531 1.603c-.268.33-.327.386-.35.324l-.005-.015z" fill="#050505"/></svg>