<svg width="32" height="32" viewBox="0 0 32 32" fill="none" xmlns="http://www.w3.org/2000/svg">
<path d="M15.8278 14.8971C16.2763 14.672 16.5816 14.2545 16.5816 13.7404C16.5816 12.5423 15.4994 12.2845 14.5131 12.3014H11.8515H11.8363H10.3607V16.1269C10.3607 16.6824 10.1676 16.8748 9.82379 16.8748C9.45431 16.8748 9.24653 16.6664 9.24653 16.2879V15.7581H7.84326V16.0061C7.84326 17.2855 8.33221 18.1605 9.84728 18.1605C11.0831 18.1605 11.7365 17.6117 11.8363 16.5279V18.0403H14.585C15.8112 18.0403 16.8132 17.6227 16.8132 16.2561C16.8132 15.6054 16.4375 15.0748 15.8278 14.8971ZM13.3275 13.4583H14.4809C14.7941 13.4583 15.0905 13.5959 15.0905 14.0133C15.0905 14.4232 14.738 14.5599 14.4809 14.5599H13.3275V13.4583ZM14.5213 16.843H13.3275V15.524H14.5213C14.9705 15.524 15.3233 15.6934 15.3233 16.1987C15.3233 16.6737 14.9945 16.843 14.5213 16.843Z" fill="#CC0000"/>
<path d="M13.7774 22.1259C13.7774 21.1564 12.9928 20.3687 12.0256 20.3687C11.0565 20.3687 10.2725 21.1564 10.2725 22.1259C10.2725 23.0972 11.0565 23.8833 12.0256 23.8833C12.9928 23.8833 13.7774 23.0972 13.7774 22.1259Z" fill="#CC0000"/>
<path d="M9.12221 21.5715C9.12221 20.7125 8.42711 20.0156 7.56982 20.0156C6.71266 20.0156 6.01807 20.7124 6.01807 21.5715C6.01807 22.4313 6.71254 23.1284 7.56982 23.1284C8.42711 23.1284 9.12221 22.4313 9.12221 21.5715Z" fill="#CC0000"/>
<path d="M5.61526 18.7595C5.61526 17.9837 4.98913 17.3545 4.21451 17.3545C3.43964 17.3545 2.8125 17.9837 2.8125 18.7595C2.8125 19.5373 3.43964 20.1666 4.21451 20.1666C4.98901 20.1666 5.61526 19.5373 5.61526 18.7595Z" fill="#CC0000"/>
<path d="M4.96466 14.8455C4.96466 14.1517 4.40499 13.5911 3.71403 13.5911C3.02321 13.5911 2.4624 14.1516 2.4624 14.8455C2.4624 15.5384 3.02321 16.1009 3.71403 16.1009C4.40499 16.1009 4.96466 15.5383 4.96466 14.8455Z" fill="#CC0000"/>
<path d="M6.71886 11.3308C6.71886 10.7488 6.247 10.2767 5.6671 10.2767C5.08683 10.2767 4.61572 10.7488 4.61572 11.3308C4.61572 11.9133 5.08683 12.385 5.6671 12.385C6.247 12.385 6.71886 11.9133 6.71886 11.3308Z" fill="#CC0000"/>
<path d="M9.72097 9.77409C9.72097 9.24744 9.29572 8.82019 8.77047 8.82019C8.24534 8.82019 7.81934 9.24744 7.81934 9.77409C7.81934 10.3016 8.24547 10.7289 8.77047 10.7289C9.29584 10.7289 9.72097 10.3016 9.72097 9.77409Z" fill="#CC0000"/>
<path d="M12.8758 9.27173C12.8758 8.82798 12.5179 8.46826 12.0751 8.46826C11.6333 8.46826 11.2739 8.82798 11.2739 9.27173C11.2739 9.71598 11.6333 10.0756 12.0751 10.0756C12.5179 10.0756 12.8758 9.71598 12.8758 9.27173Z" fill="#CC0000"/>
<path d="M27.554 15.5489C26.929 15.4126 25.9734 15.3405 25.9734 14.9458C25.9734 14.656 26.3351 14.6324 26.5589 14.6324C26.7271 14.6324 26.8785 14.6649 26.9919 14.7366C27.103 14.8092 27.1673 14.9218 27.1673 15.0977H28.426C28.3776 14.0134 27.4234 13.7478 26.5115 13.7478C25.7517 13.7478 24.7647 13.9849 24.6281 14.8238C24.4415 13.9694 23.5799 13.7478 22.7508 13.7478C21.933 13.7478 20.8085 14.0215 20.8085 15.0261C20.8085 15.0439 20.8111 15.059 20.8115 15.0763C20.4943 14.283 19.7449 13.7478 18.781 13.7478C17.7384 13.7478 16.9589 14.3585 16.6953 15.2592C16.8968 15.5311 17.0028 15.8858 17.0028 16.2561C17.0028 16.5601 16.9546 16.8292 16.8633 17.0648C17.2217 17.7292 17.9114 18.1605 18.781 18.1605C19.7049 18.1605 20.4296 17.6726 20.7678 16.936C20.9454 17.882 21.8686 18.1605 22.7724 18.1605C23.5497 18.1605 24.4081 17.9051 24.6794 17.1813C24.9601 17.9308 25.7962 18.1605 26.6167 18.1605C27.5541 18.1605 28.6124 17.7912 28.6124 16.6736C28.6123 16.3282 28.3949 15.7182 27.554 15.5489ZM18.781 17.1159C18.1472 17.1159 17.9546 16.4897 17.9546 15.9584C17.9546 15.4286 18.1472 14.7923 18.781 14.7923C19.414 14.7923 19.6143 15.4287 19.6143 15.9584C19.6142 16.4898 19.414 17.1159 18.781 17.1159ZM22.7644 17.2758C22.5724 17.2758 22.3875 17.2289 22.2591 17.1319C22.1237 17.0274 22.0345 16.8747 22.0345 16.6663H20.8714C20.9394 16.4456 20.977 16.2085 20.977 15.9584C20.977 15.8417 20.9665 15.7286 20.9513 15.6174C21.2701 16.1687 22.0701 16.2223 22.7407 16.3927C22.9801 16.4482 23.4054 16.5136 23.4054 16.8343C23.4054 17.1644 23.0278 17.2758 22.7644 17.2758ZM26.6085 17.2758C26.4167 17.2758 26.2319 17.2289 26.1033 17.1319C25.9679 17.0274 25.8787 16.8747 25.8787 16.6663H24.7679C24.765 16.3197 24.5452 15.7171 23.7098 15.5489C23.0849 15.4126 22.1712 15.3405 22.1712 14.9458C22.1712 14.656 22.5746 14.6324 22.7983 14.6324C22.9667 14.6324 23.1179 14.6649 23.2314 14.7366C23.3425 14.8092 23.4067 14.9218 23.4067 15.0977H24.6153C24.6638 16.1503 25.7458 16.1796 26.5848 16.3928C26.8243 16.4484 27.2494 16.5137 27.2494 16.8344C27.2496 17.1644 26.8719 17.2758 26.6085 17.2758Z" fill="#61615C"/>
<path d="M28.7345 13.0242H28.8558L29.0382 13.3248H29.1564L28.959 13.0187C29.0604 13.0058 29.1374 12.9519 29.1374 12.8286C29.1374 12.6901 29.0573 12.6304 28.894 12.6304H28.6299V13.3248H28.7345V13.0242ZM28.7345 12.9343V12.7187H28.8781C28.9494 12.7187 29.0289 12.7353 29.0289 12.8214C29.0289 12.9281 28.9494 12.9343 28.8607 12.9343H28.7345Z" fill="#61615C"/>
<path d="M29.5376 12.9788C29.5376 13.3543 29.2336 13.6582 28.8593 13.6582C28.4842 13.6582 28.1802 13.3543 28.1802 12.9788C28.1802 12.6025 28.4842 12.2979 28.8593 12.2979C29.2336 12.298 29.5376 12.6025 29.5376 12.9788ZM28.8592 12.4189C28.5496 12.4189 28.2999 12.6687 28.2999 12.9788C28.2999 13.2877 28.5496 13.5373 28.8592 13.5373C29.167 13.5373 29.4167 13.2877 29.4167 12.9788C29.4169 12.6687 29.167 12.4189 28.8592 12.4189Z" fill="#61615C"/>
</svg>
