<svg width="32" height="32" fill="none" xmlns="http://www.w3.org/2000/svg"><g clip-path="url(#clip0)"><path d="M20.58 17.495a3.63 3.63 0 00-2.734 1.242l-1.714-1.213a4.67 4.67 0 00.287-1.601c0-.553-.101-1.082-.277-1.575l1.71-1.2a3.635 3.635 0 002.728 1.235 3.65 3.65 0 003.646-3.645 3.65 3.65 0 00-3.646-3.646 3.65 3.65 0 00-3.646 3.646c0 .36.054.706.152 1.035l-1.71 1.2a4.706 4.706 0 00-2.917-1.694V9.218a3.652 3.652 0 002.896-3.568 3.65 3.65 0 00-3.646-3.646A3.65 3.65 0 008.063 5.65a3.65 3.65 0 002.83 3.55v2.09A4.713 4.713 0 007 15.922a4.713 4.713 0 003.927 4.639v2.205a3.65 3.65 0 00-2.864 3.559 3.65 3.65 0 003.646 3.646 3.65 3.65 0 003.646-3.646 3.65 3.65 0 00-2.863-3.56v-2.204a4.708 4.708 0 002.866-1.668l1.725 1.221c-.096.326-.15.67-.15 1.026a3.65 3.65 0 003.647 3.646 3.65 3.65 0 003.646-3.646 3.65 3.65 0 00-3.646-3.646zm0-8.525a1.77 1.77 0 011.767 1.768 1.77 1.77 0 01-1.767 1.767 1.77 1.77 0 01-1.768-1.768A1.77 1.77 0 0120.58 8.97zM9.942 5.65a1.77 1.77 0 011.767-1.768 1.77 1.77 0 011.768 1.768 1.77 1.77 0 01-1.768 1.768A1.77 1.77 0 019.942 5.65zm3.535 20.676a1.77 1.77 0 01-1.768 1.768 1.77 1.77 0 01-1.767-1.768 1.77 1.77 0 011.767-1.768 1.77 1.77 0 011.768 1.768zm-1.768-7.938a2.468 2.468 0 01-2.465-2.465 2.468 2.468 0 012.465-2.466 2.468 2.468 0 012.466 2.466 2.468 2.468 0 01-2.466 2.465zm8.87 4.52a1.77 1.77 0 01-1.767-1.767 1.77 1.77 0 011.768-1.768 1.77 1.77 0 011.767 1.768 1.77 1.77 0 01-1.767 1.767z" fill="#000"/></g><defs><clipPath id="clip0"><path fill="#fff" d="M7 2h17.226v28H7z"/></clipPath></defs></svg>