<svg width="32" height="32" fill="none" xmlns="http://www.w3.org/2000/svg"><path d="M30.06 23.351v5.892c0 .69-.211.832-.866.725-4.388-.654-8.829-1.256-13.252-1.875-.796-.106-1.08-.39-1.08-1.256.072-3.132.036-6.281 0-9.448 0-.69.213-.902.903-.902 4.53.035 8.988.035 13.429.035.725 0 .902.283.902.938-.07 1.981-.035 3.927-.035 5.891zM22.541 15.39c-2.229 0-4.458-.036-6.688 0-.69 0-.973-.142-.973-.938.036-3.203.036-6.352 0-9.519 0-.62.213-.832.796-.938 4.565-.654 9.13-1.291 13.695-1.981.796-.106.654.424.654.867 0 2.83.036 5.714 0 8.545 0 1.044-.035 2.088 0 3.132.036.655-.212.832-.831.832-2.194-.036-4.423 0-6.653 0zM7.786 16.575h4.989c.53 0 .76.177.76.725v9.837c0 .567-.247.62-.76.567-3.309-.496-6.617-.973-9.908-1.433-.655-.107-.867-.319-.867-1.009.035-2.618.035-5.237 0-7.909 0-.654.177-.831.832-.831 1.68.053 3.29.053 4.954.053zM7.786 15.39H2.867c-.619 0-.831-.213-.831-.868.035-2.583.035-5.166 0-7.767 0-.619.177-.831.831-.937a310.55 310.55 0 009.908-1.434c.76-.106.832.142.832.761v9.413c0 .69-.283.796-.903.796-1.645 0-3.308.035-4.918.035z" fill="#00AAF2"/></svg>