<svg width="32" height="32" fill="none" xmlns="http://www.w3.org/2000/svg"><path d="M16.403 29.29l-.73-.249s.097-3.701-1.246-3.97c-.882-1.035.135-43.534 3.337-.134 0 0-1.093.556-1.285 1.496-.23.92-.076 2.858-.076 2.858z" fill="#fff"/><path d="M16.403 29.29l-.73-.249s.097-3.701-1.246-3.97c-.882-1.035.135-43.534 3.337-.134 0 0-1.093.556-1.285 1.496-.23.92-.076 2.858-.076 2.858z" fill="#A6A385"/><path d="M16.786 25.723s6.348-4.18 4.871-12.868c-1.438-6.31-4.813-8.381-5.178-9.187-.402-.575-.805-1.553-.805-1.553l.268 17.567c0 .02-.556 5.39.844 6.041z" fill="#fff"/><path d="M16.786 25.723s6.348-4.18 4.871-12.868c-1.438-6.31-4.813-8.381-5.178-9.187-.402-.575-.805-1.553-.805-1.553l.268 17.567c0 .02-.556 5.39.844 6.041z" fill="#499D4A"/><path d="M15.29 25.953s-5.964-4.065-5.619-11.238c.345-7.173 4.545-10.682 5.37-11.334.537-.576.556-.787.575-1.343.365.806.307 11.91.346 13.214.191 5.044-.25 9.742-.672 10.701z" fill="#fff"/><path d="M15.29 25.953s-5.964-4.065-5.619-11.238c.345-7.173 4.545-10.682 5.37-11.334.537-.576.556-.787.575-1.343.365.806.307 11.91.346 13.214.191 5.044-.25 9.742-.672 10.701z" fill="#58AA50"/></svg>