<svg width="32" height="32" fill="none" xmlns="http://www.w3.org/2000/svg"><path fill-rule="evenodd" clip-rule="evenodd" d="M27.85 23.309c-1.498-.066-2.67.13-3.712.52-.26.131-.717.131-.782.457.13.13.195.39.326.586.26.39.651.912.977 1.172.39.326.781.587 1.237.847.717.456 1.564.717 2.28 1.173.391.26.847.586 1.238.912.195.13.325.39.586.52v-.064c-.13-.196-.195-.391-.326-.587-.195-.195-.39-.39-.586-.52-.521-.717-1.238-1.369-1.954-1.955-.586-.39-1.954-.977-2.215-1.693l-.065-.066a9.543 9.543 0 001.303-.325c.651-.196 1.238-.13 1.889-.326.326-.065.586-.195.912-.26v-.196c-.326-.326-.586-.782-.977-1.107a27.954 27.954 0 00-3.127-2.345c-.586-.391-1.368-.652-1.954-.977-.195-.13-.586-.196-.716-.391-.326-.39-.522-.977-.782-1.433-.521-1.042-1.107-2.215-1.563-3.322-.326-.717-.521-1.498-.977-2.15-1.955-3.256-4.104-5.21-7.361-7.1-.716-.39-1.563-.586-2.41-.781-.456 0-.977-.065-1.433-.065-.326-.13-.586-.521-.847-.652-1.107-.716-3.908-2.15-4.69-.195-.52 1.237.782 2.475 1.173 3.061.325.456.716.912.977 1.433.13.326.195.652.325.977.326.847.587 1.76.978 2.54.195.392.456.848.716 1.173.13.196.39.326.456.652-.26.39-.26.977-.456 1.433-.716 2.15-.39 4.82.521 6.383.326.456 1.042 1.498 2.02 1.107.846-.325.65-1.433.911-2.41.065-.26 0-.39.13-.52v.064l.782 1.564c.587.912 1.629 1.889 2.476 2.54.455.326.846.912 1.367 1.172v-.065h-.065c-.13-.195-.26-.26-.456-.39A8.473 8.473 0 0113 22.526c-.781-1.042-1.498-2.215-2.15-3.452-.325-.587-.586-1.238-.846-1.824-.13-.196-.13-.586-.326-.717-.26.391-.716.782-.912 1.303-.39.847-.39 1.824-.52 2.866-.066 0-.066 0-.066.065-.586-.13-.847-.781-1.042-1.302-.586-1.368-.652-3.518-.196-5.081.13-.39.717-1.629.456-2.02-.13-.39-.52-.586-.716-.846-.26-.391-.521-.847-.717-1.238-.456-1.042-.716-2.214-1.172-3.322-.26-.52-.651-1.042-.977-1.498-.391-.521-.782-.847-1.042-1.498-.065-.195-.196-.521-.065-.782a.509.509 0 01.26-.26c.26-.196.977.065 1.173.195.716.26 1.302.521 1.889.977.26.196.52.521.911.652h.391c.587.13 1.303.065 1.89.195a13.21 13.21 0 012.735 1.303c2.475 1.563 4.56 3.843 5.927 6.513.261.456.326.847.522 1.303.39.912.912 1.89 1.302 2.801.391.912.782 1.824 1.368 2.54.26.391 1.433.587 1.954.847.391.196.977.326 1.303.521.651.391 1.303.847 1.889 1.303.586.39 1.563.847 1.628 1.238z" fill="#6A7E91"/></svg>