<svg width="32" height="32" fill="none" xmlns="http://www.w3.org/2000/svg"><path d="M16.003.375c-.283 0-.56.074-.806.215L3.061 7.6a1.606 1.606 0 00-.615.584 1.637 1.637 0 00-.216.813v14.006c.008.284.091.56.24.8.143.26.357.473.616.616l12.136 6.984c.243.146.522.223.806.222.283-.002.561-.078.806-.222l12.105-6.984c.26-.143.473-.356.615-.616.144-.246.219-.527.216-.812V8.997c0-.285-.075-.565-.216-.813a1.606 1.606 0 00-.615-.584L16.803.59a1.594 1.594 0 00-.8-.215z" fill="#009639"/><path d="M12.114 21.342a1.563 1.563 0 01-3.12 0v-10.72a1.625 1.625 0 011.723-1.52h.049a2.77 2.77 0 012.13.947l.467.566 6.523 7.803v-7.753a1.563 1.563 0 013.12 0v10.713a1.627 1.627 0 01-1.723 1.52h-.043a2.77 2.77 0 01-2.166-.941l-6.96-8.382v7.767z" fill="#fff"/></svg>