<svg width="32" height="32" fill="none" xmlns="http://www.w3.org/2000/svg"><g clip-path="url(#clip0)"><path d="M28.9 19.056c-.157-.473-.565-.801-1.093-.88a2.503 2.503 0 00-.872.048 7.826 7.826 0 01-1.343.176c1.202-2.03 2.18-4.344 2.742-6.523.91-3.523.424-5.128-.144-5.854-1.504-1.921-3.698-2.954-6.345-2.985a11.244 11.244 0 00-3.298.462 12.282 12.282 0 00-1.929-.177c-1.273-.02-2.398.257-3.36.828a15.317 15.317 0 00-2.372-.596c-2.32-.38-4.19-.084-5.557.882-1.656 1.17-2.424 3.203-2.282 6.041.045.902.55 3.644 1.343 6.245.456 1.494.943 2.736 1.446 3.69.714 1.352 1.477 2.148 2.335 2.434.48.16 1.353.272 2.271-.493.117.141.272.281.478.412.262.165.582.3.901.38 1.152.287 2.231.215 3.152-.188l.013.455c.006.219.012.434.02.635.055 1.358.147 2.414.421 3.153.015.04.036.103.057.168.136.419.365 1.119.946 1.667.602.568 1.33.742 1.996.742.335 0 .654-.044.934-.104.997-.213 2.13-.539 2.949-1.706.775-1.103 1.151-2.764 1.22-5.381l.024-.213.016-.138.183.016.047.003c1.016.047 2.258-.169 3.02-.523.604-.28 2.535-1.3 2.08-2.676z" fill="#000"/><path d="M27.163 19.323c-3.02.623-3.229-.4-3.229-.4 3.19-4.731 4.523-10.738 3.372-12.208-3.138-4.01-8.572-2.114-8.662-2.065l-.03.006a10.77 10.77 0 00-2.015-.21c-1.366-.023-2.403.358-3.19.955 0 0-9.692-3.993-9.24 5.021.095 1.918 2.748 14.51 5.912 10.707 1.156-1.39 2.274-2.567 2.274-2.567.555.369 1.22.557 1.916.49l.054-.046c-.017.172-.01.341.022.541-.816.91-.576 1.07-2.205 1.406-1.65.34-.68.945-.048 1.103.766.192 2.54.463 3.738-1.214l-.047.191c.319.256.543 1.664.506 2.94-.038 1.277-.063 2.153.189 2.838.251.684.502 2.225 2.644 1.766 1.79-.384 2.718-1.378 2.847-3.036.091-1.179.299-1.005.312-2.058l.166-.5c.191-1.597.03-2.113 1.133-1.873l.268.024c.812.037 1.874-.131 2.497-.42 1.343-.624 2.14-1.664.815-1.39z" fill="#336791"/><path d="M13.976 11.28c-.272-.038-.518-.003-.643.092a.236.236 0 00-.098.157c-.015.112.063.236.112.3a.84.84 0 00.534.333.601.601 0 00.085.006c.33 0 .63-.257.656-.446.033-.237-.311-.396-.646-.442zm9.018.008c-.026-.187-.357-.24-.671-.196-.314.044-.618.185-.593.372.02.145.282.392.592.392a.559.559 0 00.08-.005.763.763 0 00.43-.236c.11-.115.173-.244.162-.328z" fill="#fff"/><path d="M28.167 19.253c-.115-.349-.486-.46-1.102-.334-1.828.378-2.483.116-2.698-.042 1.421-2.165 2.59-4.783 3.221-7.225.3-1.156.464-2.23.478-3.107.015-.96-.149-1.667-.487-2.098-1.36-1.74-3.358-2.673-5.777-2.698-1.662-.019-3.067.407-3.339.526a8.326 8.326 0 00-1.88-.241c-1.247-.02-2.326.279-3.22.888a14.376 14.376 0 00-2.616-.687c-2.12-.34-3.804-.082-5.006.77-1.435 1.016-2.097 2.832-1.969 5.398.044.864.536 3.52 1.312 6.063 1.022 3.348 2.133 5.244 3.302 5.634.136.045.294.077.468.077.426 0 .95-.192 1.493-.846a53.782 53.782 0 012.058-2.328c.46.246.964.384 1.48.398l.004.04c-.09.106-.176.214-.261.323-.358.454-.432.548-1.584.785-.327.068-1.197.247-1.21.857-.014.666 1.028.946 1.147.976.414.103.812.154 1.193.154.924 0 1.738-.303 2.388-.891-.02 2.375.079 4.715.364 5.428.234.584.804 2.01 2.607 2.01.264 0 .555-.03.875-.099 1.881-.403 2.698-1.235 3.014-3.067.17-.98.46-3.319.596-4.574.288.09.659.131 1.06.131.836 0 1.8-.177 2.406-.458.68-.316 1.906-1.09 1.683-1.763zm-4.48-8.479c-.005.37-.056.707-.11 1.058a9.764 9.764 0 00-.134 1.241c-.015.461.043.94.098 1.404.113.937.228 1.901-.219 2.852a3.695 3.695 0 01-.198-.407 7.982 7.982 0 00-.343-.65c-.65-1.166-2.172-3.895-1.393-5.009.232-.332.821-.672 2.3-.489zM21.897 4.5c2.166.048 3.88.858 5.094 2.409.93 1.19-.094 6.601-3.061 11.27l-.09-.113-.038-.047c.767-1.266.617-2.519.484-3.63-.055-.456-.107-.886-.094-1.29.014-.43.07-.797.125-1.152.068-.438.136-.891.117-1.426a.592.592 0 00.013-.2c-.049-.513-.634-2.047-1.826-3.435-.652-.759-1.603-1.608-2.902-2.181a9.785 9.785 0 012.178-.205zM9.77 20.852c-.599.721-1.013.583-1.149.538-.886-.296-1.915-2.17-2.822-5.142-.785-2.571-1.244-5.157-1.28-5.882-.115-2.293.441-3.891 1.652-4.75 1.97-1.397 5.21-.561 6.513-.137l-.057.055c-2.136 2.157-2.086 5.844-2.08 6.069 0 .087.007.21.017.38.037.62.105 1.773-.078 3.08-.17 1.214.205 2.403 1.027 3.261a3.7 3.7 0 00.266.25 54.95 54.95 0 00-2.009 2.278zm2.284-3.046c-.663-.691-.964-1.653-.826-2.64.192-1.38.121-2.582.083-3.228l-.013-.232c.312-.277 1.758-1.052 2.79-.815.47.107.757.428.877.98.617 2.853.081 4.043-.349 4.999-.089.197-.172.383-.244.576l-.055.149c-.14.376-.271.726-.352 1.058-.705-.002-1.39-.303-1.911-.847zm.108 3.85a1.655 1.655 0 01-.5-.215c.091-.043.252-.1.532-.159 1.355-.278 1.564-.475 2.02-1.055.105-.133.224-.284.389-.468.245-.274.357-.227.56-.143.165.068.325.274.39.501.03.108.065.311-.048.47-.954 1.336-2.345 1.319-3.343 1.069zm7.089 6.596c-1.657.355-2.244-.49-2.63-1.457-.25-.624-.373-3.438-.286-6.545a.371.371 0 00-.016-.119 1.581 1.581 0 00-.047-.22c-.129-.452-.444-.83-.823-.987-.15-.062-.426-.176-.757-.091.07-.292.193-.62.326-.977l.056-.15c.063-.169.141-.344.225-.529.45-1 1.066-2.37.397-5.465-.25-1.16-1.087-1.725-2.356-1.594-.761.079-1.457.386-1.804.562a6.004 6.004 0 00-.207.11c.097-1.168.463-3.35 1.832-4.732.862-.87 2.01-1.299 3.41-1.276 2.756.045 4.524 1.46 5.521 2.639.86 1.016 1.325 2.039 1.51 2.59-1.396-.141-2.346.134-2.828.823-1.048 1.498.573 4.405 1.352 5.802.143.256.267.477.305.572.254.614.583 1.025.822 1.325.074.091.145.18.2.258-.424.122-1.184.404-1.114 1.813-.056.707-.453 4.016-.655 5.186-.267 1.544-.835 2.12-2.433 2.462zm6.916-7.915c-.432.2-1.156.351-1.844.384-.76.035-1.147-.085-1.238-.16-.042-.878.285-.97.63-1.066.055-.016.108-.03.159-.048.032.026.067.051.105.076.61.403 1.7.447 3.237.13l.017-.004a4.138 4.138 0 01-1.066.688z" fill="#fff"/></g><defs><clipPath id="clip0"><path fill="#fff" d="M3 3h26v26.815H3z"/></clipPath></defs></svg>