<svg width="32" height="32" fill="none" xmlns="http://www.w3.org/2000/svg"><g clip-path="url(#clip0)"><path d="M28.9 19.056c-.157-.473-.565-.801-1.093-.88a2.5 2.5 0 00-.872.048 7.828 7.828 0 01-1.343.177c1.202-2.03 2.18-4.345 2.742-6.524.91-3.523.424-5.128-.144-5.854-1.504-1.921-3.698-2.954-6.345-2.985a11.245 11.245 0 00-3.298.462 12.28 12.28 0 00-1.929-.177c-1.273-.02-2.398.258-3.36.828a15.317 15.317 0 00-2.372-.595c-2.32-.381-4.19-.085-5.557.882-1.656 1.17-2.424 3.202-2.282 6.04.045.902.549 3.644 1.343 6.245.456 1.494.943 2.736 1.446 3.69.713 1.352 1.477 2.148 2.334 2.434.48.16 1.354.272 2.272-.492.117.14.272.28.478.41.262.166.582.3.901.38 1.152.288 2.231.216 3.152-.187l.013.455c.006.219.012.434.02.635.055 1.358.147 2.414.421 3.153.015.04.035.103.057.168.136.419.365 1.119.946 1.667.602.568 1.33.742 1.996.742.335 0 .654-.043.933-.103.998-.214 2.13-.54 2.95-1.707.774-1.102 1.151-2.764 1.22-5.381l.024-.212.016-.139.183.016.047.003c1.016.047 2.258-.169 3.02-.523.603-.28 2.535-1.3 2.08-2.676z" fill="#000"/><path d="M27.162 19.323c-3.02.623-3.228-.4-3.228-.4 3.19-4.731 4.522-10.738 3.372-12.208-3.139-4.01-8.572-2.114-8.663-2.065l-.029.006a10.772 10.772 0 00-2.015-.21c-1.366-.023-2.403.358-3.19.955 0 0-9.692-3.993-9.241 5.021.096 1.918 2.749 14.51 5.913 10.707 1.156-1.39 2.274-2.567 2.274-2.567a2.932 2.932 0 001.915.49l.055-.046a2.09 2.09 0 00.021.541c-.815.91-.575 1.07-2.205 1.406-1.649.34-.68.945-.048 1.103.767.192 2.54.463 3.74-1.214l-.049.191c.32.256.544 1.664.506 2.94-.037 1.277-.062 2.153.19 2.838.251.684.502 2.225 2.644 1.766 1.79-.384 2.717-1.378 2.847-3.036.091-1.179.298-1.005.311-2.058l.167-.5c.191-1.597.03-2.113 1.133-1.873l.268.024c.811.037 1.874-.131 2.497-.42 1.343-.624 2.139-1.664.815-1.39z" fill="#336791"/><path d="M13.976 11.28c-.272-.038-.518-.003-.643.091a.236.236 0 00-.098.157c-.015.113.063.237.112.3a.841.841 0 00.534.334.603.603 0 00.085.006c.33 0 .63-.257.656-.446.033-.237-.312-.396-.646-.442zm9.018.007c-.026-.186-.357-.239-.671-.195-.314.044-.618.185-.593.372.02.145.282.392.592.392a.559.559 0 00.08-.005.762.762 0 00.43-.236c.11-.116.173-.244.162-.328z" fill="#fff"/><path d="M28.167 19.253c-.115-.349-.486-.46-1.101-.334-1.829.378-2.484.116-2.699-.042 1.421-2.165 2.59-4.783 3.222-7.225.298-1.156.463-2.23.477-3.107.015-.96-.149-1.667-.486-2.098-1.362-1.74-3.36-2.673-5.777-2.698-1.663-.019-3.068.407-3.34.526a8.326 8.326 0 00-1.879-.241c-1.248-.02-2.327.279-3.22.888a14.373 14.373 0 00-2.617-.687c-2.12-.34-3.804-.082-5.006.77-1.435 1.016-2.097 2.832-1.968 5.398.043.864.535 3.52 1.311 6.063 1.022 3.348 2.133 5.244 3.302 5.634.136.045.294.077.468.077.427 0 .95-.192 1.493-.846a53.782 53.782 0 012.058-2.328c.46.246.964.384 1.48.398l.004.04c-.089.106-.176.214-.261.323-.358.454-.432.548-1.584.785-.327.068-1.197.247-1.21.857-.014.666 1.028.946 1.147.976.414.103.813.154 1.193.154.924 0 1.738-.303 2.388-.891-.02 2.375.08 4.715.364 5.428.234.584.804 2.01 2.607 2.01.264 0 .555-.03.875-.099 1.882-.403 2.698-1.235 3.014-3.067.17-.98.46-3.319.596-4.574.288.09.659.131 1.06.131.836 0 1.8-.177 2.406-.458.68-.316 1.906-1.09 1.683-1.763zm-4.48-8.479c-.005.37-.056.707-.11 1.058a9.59 9.59 0 00-.134 1.241c-.015.461.043.94.098 1.404.113.937.229 1.901-.218 2.852a3.713 3.713 0 01-.198-.407 7.982 7.982 0 00-.344-.65c-.65-1.166-2.172-3.895-1.392-5.009.232-.332.82-.672 2.299-.489zM21.897 4.5c2.167.048 3.88.858 5.094 2.409.93 1.19-.094 6.601-3.061 11.27l-.09-.113-.038-.047c.767-1.266.617-2.519.484-3.63-.055-.456-.107-.886-.094-1.29.014-.43.07-.797.125-1.152.068-.438.136-.891.117-1.426a.59.59 0 00.013-.2c-.048-.513-.633-2.047-1.826-3.435-.652-.759-1.603-1.608-2.902-2.181a9.785 9.785 0 012.178-.205zM9.772 20.852c-.6.721-1.013.583-1.15.538-.886-.296-1.915-2.17-2.822-5.142-.785-2.571-1.244-5.157-1.28-5.882-.114-2.293.441-3.891 1.652-4.75 1.971-1.397 5.211-.561 6.513-.137l-.057.055c-2.136 2.157-2.085 5.844-2.08 6.069 0 .087.007.21.017.38.037.62.105 1.773-.078 3.08-.17 1.214.205 2.403 1.027 3.261.085.088.173.172.266.25a54.845 54.845 0 00-2.008 2.278zm2.283-3.046c-.663-.691-.964-1.653-.826-2.64.193-1.38.121-2.582.083-3.228l-.013-.232c.312-.277 1.759-1.052 2.79-.815.47.107.758.428.877.98.617 2.853.081 4.043-.349 4.999-.088.197-.172.383-.244.576l-.055.149c-.14.376-.271.726-.352 1.058-.705-.002-1.39-.303-1.911-.847zm.108 3.85a1.655 1.655 0 01-.5-.215c.091-.043.252-.1.532-.159 1.355-.278 1.564-.475 2.02-1.055.106-.133.224-.284.389-.468.245-.274.357-.227.56-.143.165.068.325.274.39.501.03.108.065.311-.048.47-.954 1.336-2.345 1.319-3.343 1.069zm7.089 6.596c-1.657.355-2.244-.49-2.63-1.457-.25-.624-.373-3.438-.286-6.545a.374.374 0 00-.016-.119 1.567 1.567 0 00-.046-.22c-.13-.452-.445-.83-.824-.987-.15-.062-.426-.176-.757-.091.07-.292.193-.62.326-.977l.056-.15c.063-.169.141-.344.225-.529.45-1 1.066-2.37.397-5.465-.25-1.16-1.087-1.725-2.356-1.594-.761.079-1.457.386-1.804.562a6.004 6.004 0 00-.207.11c.097-1.168.463-3.35 1.832-4.732.862-.87 2.01-1.299 3.41-1.276 2.756.045 4.524 1.46 5.521 2.639.86 1.016 1.325 2.039 1.511 2.59-1.397-.141-2.347.134-2.829.823-1.048 1.498.574 4.405 1.353 5.802.142.256.266.477.305.572.253.614.582 1.025.822 1.325.073.091.144.18.199.258-.424.122-1.184.404-1.114 1.813-.056.707-.453 4.016-.655 5.186-.266 1.544-.835 2.12-2.433 2.462zm6.917-7.915c-.433.2-1.157.351-1.845.384-.76.035-1.146-.085-1.237-.16-.043-.878.284-.97.63-1.066.054-.016.107-.03.158-.048.032.026.067.051.105.076.61.403 1.7.447 3.237.13l.017-.004a4.138 4.138 0 01-1.066.688z" fill="#fff"/></g><defs><clipPath id="clip0"><path fill="#fff" d="M3 3h26v26.815H3z"/></clipPath></defs></svg>