<svg width="32" height="32" fill="none" xmlns="http://www.w3.org/2000/svg"><g clip-path="url(#clip0)"><path d="M28.361 13.19H19.57a.8.8 0 01-.8-.799V3.23c0-.68-.55-1.23-1.227-1.23h-3.138c-.679 0-1.229.55-1.229 1.229v9.107a.859.859 0 01-.854.858l-2.881.014a.859.859 0 01-.863-.86l.018-9.117A1.228 1.228 0 007.367 2H4.23c-.679 0-1.229.55-1.229 1.229v25.656a1.09 1.09 0 001.09 1.091h24.27a1.09 1.09 0 001.09-1.09V14.281a1.09 1.09 0 00-1.09-1.091zm-4.122 9.633c0 .79-.64 1.43-1.43 1.43h-2.48a1.43 1.43 0 01-1.431-1.43v-2.48c0-.79.64-1.43 1.43-1.43h2.48c.79 0 1.43.64 1.43 1.43v2.48z" fill="#F60"/></g><defs><clipPath id="clip0"><path fill="#fff" d="M3 2h26.454v28H3z"/></clipPath></defs></svg>