<svg width="32" height="32" fill="none" xmlns="http://www.w3.org/2000/svg"><path d="M28.902 22.505c-1.494.779-9.234 3.961-10.882 4.82-1.648.86-2.563.851-3.865.229-1.302-.623-9.54-3.95-11.023-4.66C2.39 22.54 2 22.242 2 21.96v-2.83s10.724-2.335 12.456-2.956c1.73-.621 2.331-.644 3.805-.104 1.473.54 10.282 2.13 11.739 2.663l-.001 2.79c0 .28-.336.586-1.096.983z" fill="#A41E11"/><path d="M28.902 19.674c-1.494.778-9.234 3.961-10.882 4.82-1.648.86-2.563.851-3.865.229s-9.54-3.95-11.023-4.659c-1.484-.71-1.515-1.197-.057-1.768 1.457-.571 9.65-3.785 11.38-4.406 1.732-.621 2.332-.644 3.806-.104 1.473.54 9.167 3.602 10.623 4.136 1.457.533 1.513.973.018 1.752z" fill="#D82C20"/><path d="M28.902 17.89c-1.494.778-9.234 3.961-10.882 4.82-1.648.86-2.563.85-3.865.229-1.302-.622-9.54-3.95-11.023-4.66C2.39 17.926 2 17.628 2 17.345v-2.83s10.724-2.335 12.456-2.956c1.73-.621 2.331-.644 3.805-.104 1.473.54 10.282 2.129 11.739 2.662l-.001 2.79c0 .28-.336.587-1.096.984z" fill="#A41E11"/><path d="M28.902 15.059c-1.494.779-9.234 3.961-10.882 4.82-1.648.86-2.563.851-3.865.229s-9.54-3.95-11.023-4.66c-1.484-.708-1.515-1.196-.057-1.767 1.457-.57 9.65-3.785 11.38-4.406 1.732-.621 2.332-.644 3.806-.104 1.473.54 9.167 3.602 10.623 4.136 1.457.533 1.513.973.018 1.752z" fill="#D82C20"/><path d="M28.902 13.103c-1.494.779-9.234 3.962-10.882 4.821-1.648.86-2.563.85-3.865.228s-9.54-3.95-11.023-4.658C2.39 13.139 2 12.84 2 12.558v-2.83s10.724-2.335 12.456-2.956c1.73-.621 2.331-.644 3.805-.104C19.733 7.208 28.543 8.797 30 9.33l-.001 2.79c0 .28-.336.587-1.096.983z" fill="#A41E11"/><path d="M28.902 10.272c-1.494.779-9.234 3.962-10.882 4.82-1.648.86-2.563.851-3.865.23-1.302-.623-9.54-3.95-11.023-4.66-1.484-.708-1.515-1.197-.057-1.768 1.457-.57 9.65-3.784 11.38-4.405 1.732-.622 2.332-.644 3.806-.104 1.473.54 9.167 3.602 10.623 4.135 1.457.534 1.513.973.018 1.752z" fill="#D82C20"/><path d="M19.669 7.546l-2.426.252-.544 1.307-.877-1.458-2.801-.252 2.09-.754-.627-1.157 1.957.765 1.845-.604-.499 1.197 1.882.704zm-3.114 6.341l-4.528-1.878 6.488-.996-1.96 2.874zm-6.278-2.926c1.915 0 3.468-.601 3.468-1.344 0-.742-1.553-1.344-3.468-1.344S6.81 8.875 6.81 9.617c0 .743 1.553 1.344 3.468 1.344z" fill="#fff"/><path d="M22.536 7.904l3.84 1.517-3.837 1.516-.003-3.033z" fill="#7A0C00"/><path d="M18.288 9.584l4.248-1.68.003 3.033-.416.163-3.835-1.516z" fill="#AD2115"/></svg>