<svg width="32" height="32" fill="none" xmlns="http://www.w3.org/2000/svg"><path d="M18.418 15.445c-.042-.128-.47.128-.597.17.147.89.232 1.789.256 2.69a24.093 24.093 0 01-2.86-1.835l-.299.128v-.128l-.426.128c-.129.085-.086 0-.086.17a9.061 9.061 0 01-.47 3.628c-.853-.725-1.664-1.75-1.877-2.689a.619.619 0 01-.3.086c-.127.042-.17 0-.127.128a5.6 5.6 0 002.006 2.817c-.811.299-1.707.64-2.732.982-.341.128-.854.256-1.408.47a21.866 21.866 0 002.091-4.355l-.64.256a28.724 28.724 0 01-2.22 4.055c-.042.043-.042.086-.085.128a3.526 3.526 0 01-.256-2.817c.043-.17-.555.256-.598.3-.17.084-.17.213-.213.383a4.73 4.73 0 00-.085.811 3.38 3.38 0 00.554 1.75c-1.323.384-2.817.854-4.268 1.238v-.128c.214-1.024 1.238-2.348 2.433-3.03l.299-.342-1.622 1.11c-.768.64-1.622 1.665-1.835 2.604-.3 1.365.725 2.432 1.835 3.243 1.2.792 2.53 1.37 3.927 1.708 2.123.534 4.299.834 6.488.896h.298a.627.627 0 00.086-.17c.128-.257 2.048-3.842 2.56-6.873.576-2.465.634-5.023.171-7.512zm-3.5 1.28c.997.655 2.038 1.24 3.116 1.75a16.833 16.833 0 01-3.628 1.964 9.612 9.612 0 00.512-3.713zm-3.5 5.507c.727-.244 1.44-.529 2.135-.854a29.443 29.443 0 01-1.836 3.67 7.02 7.02 0 01-.939-.597 8.001 8.001 0 01-1.622-1.536c.768-.214 1.537-.427 2.262-.683zm-7.512 1.92c1.366-.341 2.817-.64 4.268-.981-1.067 1.58-2.006 2.732-2.518 3.628-.853-.64-1.707-1.622-1.75-2.646zm1.92 2.775c.855-1.28 1.922-2.433 2.86-3.585a7.258 7.258 0 002.39 1.92c-1.672.598-3.38 1.238-5.036 1.793a.458.458 0 01-.213-.128zm3.672 1.75c-.086-.043-.171-.043-.256-.085a11.303 11.303 0 01-3.03-1.366c.682-.214 3.67-.982 5.078-1.451-.81 1.323-1.536 2.39-1.792 2.902zm6.018 1.067c-1.152-.128-3.5-.512-5.08-.811 2.178-.512 3.629-.726 6.104-1.92-.427 1.152-.81 2.261-1.024 2.731zm-5.463-.982a.46.46 0 01-.257-.042 25.551 25.551 0 002.22-2.988c1.442.594 2.97.954 4.524 1.067-1.024.427-6.231 1.92-6.487 1.963zm7.597-5.549a34.872 34.872 0 01-1.024 3.5 17.041 17.041 0 01-4.269-1.323c1.452-.597 4.525-2.006 5.336-2.56 0 .127-.043.255-.043.384zm.128-.64c-.854.512-3.756 1.622-5.122 2.134a18.96 18.96 0 001.58-3.542 13.07 13.07 0 003.542 1.408zm0-.17a10.973 10.973 0 01-3.201-1.494 22.62 22.62 0 003.5-2.134 22.648 22.648 0 01-.299 3.628z" fill="url(#paint0_radial)"/><path d="M8.516 5.841c-.555-.426.043-1.024.384-1.28.128-.128.299-.213.427-.341.427.512 1.494 1.878 1.92 2.304l.769-.042c-.384-.342-2.006-1.964-2.476-2.39a24 24 0 004.78.896v.042a23.05 23.05 0 00-2.304 1.324l.64.085a7.851 7.851 0 001.793-1.238c.277.614.588 1.213.93 1.793l.598.085c-1.11-1.92-1.92-3.628-2.262-5.079-.803.256-5.2 1.793-6.019 2.86-.384.427.513.768.811.981h.009zm5.037-3.628c.077.85.278 1.684.597 2.476-1.024-.256-3.5-.64-4.396-.726a21.105 21.105 0 013.799-1.75z" fill="url(#paint1_radial)"/><path d="M28.577 13.097c-1.537-2.39-3.842-4.61-10.799-5.89-1.451-.256-3.201-.47-6.274-1.024-1.067-.17-4.269-.683-3.884-1.323a.457.457 0 00.076.64c1.58 1.793 3.885 2.86 3.885 6.53 0 3.372-3.03 6.53-6.104 9.05a4.431 4.431 0 00-.512.426 46.563 46.563 0 018.835-4.268c3.585-1.409 10.713-3.415 14.811-3.97l-.034-.17zM22.6 9.213c.427.171.811.342 1.195.512a32.376 32.376 0 00-5.292 1.622 8.909 8.909 0 00.939-3.158c1.058.299 2.134.64 3.158 1.024zm-4.823 2.22c-.709-.43-1.45-.8-2.22-1.11A29.884 29.884 0 0119.1 8.146c-.042.811-.47 1.92-1.323 3.287zm-5.933-1.451c.816.173 1.616.415 2.39.725a30.146 30.146 0 00-2.304 2.092c.101-.939.072-1.887-.086-2.817zm2.68 1.152a10.475 10.475 0 01-1.28 3.073 3.416 3.416 0 00-1.238-.896 19.85 19.85 0 012.519-2.177zm.513-.128c.64.299 1.323.64 2.006.982a21.864 21.864 0 00-2.988 1.664c.49-.814.826-1.71.99-2.646h-.008zm3.67-2.945a17.904 17.904 0 00-3.542 1.92 6.055 6.055 0 00-.512-2.688 67.06 67.06 0 014.063.768h-.008zm-4.353-.811c.29.894.392 1.839.299 2.774a37.045 37.045 0 00-2.69-.768c.736-.74 1.535-1.41 2.391-2.006zm-5.72-1.28c.513.17 1.11.34 1.793.512.299.853.512 1.622.726 2.304a9.231 9.231 0 00-2.51-2.817h-.009zm2.092.597c1.238.299 2.56.512 3.33.64A9.572 9.572 0 0011.622 9c-.223-.836-.52-1.65-.887-2.433h-.01zm.939 7.427c.34.154.656.355.939.597a29.16 29.16 0 00-1.963 1.494 6.828 6.828 0 001.033-2.091h-.01zm-1.537 2.86c.555-.385 1.324-.94 2.305-1.58a14.14 14.14 0 01-3.67 3.159c.504-.484.964-1.013 1.374-1.58h-.009zm-.683 1.622a15.578 15.578 0 003.629-3.372c.347.429.569.946.64 1.493-1.656.683-2.98 1.196-4.26 1.878h-.009zm4.576-1.964a4.105 4.105 0 00-.47-1.92 60.793 60.793 0 013.458-1.879 41.989 41.989 0 01-2.988 3.8zm.47-.17a18.667 18.667 0 003.371-3.842 13.919 13.919 0 012.476 1.963 68.037 68.037 0 00-5.847 1.878zm6.274-2.007a8.538 8.538 0 00-2.22-2.39 41.95 41.95 0 015.55-2.006c-.641 1.152-1.708 2.348-3.33 4.396zm.555-.128a12.054 12.054 0 003.116-4.14 13.073 13.073 0 013.67 2.902.589.589 0 00.171.128 36.54 36.54 0 00-6.957 1.11z" fill="url(#paint2_radial)"/><defs><radialGradient id="paint0_radial" cx="0" cy="0" r="1" gradientUnits="userSpaceOnUse" gradientTransform="translate(20.227 14.085) scale(24.6407)"><stop stop-color="#fff"/><stop offset=".87" stop-color="#99A5B4"/><stop offset=".99" stop-color="#8A97A8"/></radialGradient><radialGradient id="paint1_radial" cx="0" cy="0" r="1" gradientUnits="userSpaceOnUse" gradientTransform="matrix(164.394 0 0 99.7061 -2255.05 2024.72)"><stop stop-color="#fff"/><stop offset=".87" stop-color="#99A5B4"/><stop offset=".99" stop-color="#8A97A8"/></radialGradient><radialGradient id="paint2_radial" cx="0" cy="0" r="1" gradientUnits="userSpaceOnUse" gradientTransform="translate(14.271 13.599) scale(10.2214)"><stop stop-color="#E23126"/><stop offset="1" stop-color="#B92226"/></radialGradient></defs></svg>