<svg width="32" height="32" viewBox="0 0 32 32" fill="none" xmlns="http://www.w3.org/2000/svg">
<rect x="3.55566" y="3.55554" width="24.8889" height="24.1111" fill="white"/>
<path d="M25.3333 25.3333H6.66667V6.66667H25.3333V25.3333ZM20.6667 2H18.3333V4.33333H20.6667V2ZM11.3333 4.33333H13.6667V2H11.3333V4.33333ZM27.6667 11.3333V13.6667H30V11.3333H27.6667ZM21.8333 4.33333H26.5C27.144 4.33333 27.6667 4.85717 27.6667 5.5V10.1667H30V5.5C30 3.56683 28.4332 2 26.5 2H21.8333V4.33333ZM13.6667 30V27.6667H11.3333V30H13.6667ZM27.6667 14.8333V17.1667H30V14.8333H27.6667ZM30 18.3333H27.6667V20.6667H30V18.3333ZM14.8333 4.33333H17.1667V2H14.8333V4.33333ZM17.1667 27.6667H14.8333V30H17.1667V27.6667ZM10.1667 27.6667H5.5C4.856 27.6667 4.33333 27.1428 4.33333 26.5V21.8333H2V26.5C2 28.4332 3.56683 30 5.5 30H10.1667V27.6667ZM2 17.1667H4.33333V14.8333H2V17.1667ZM27.6667 21.8333V26.5C27.6667 27.1428 27.144 27.6667 26.5 27.6667H21.8333V30H26.5C28.4332 30 30 28.4332 30 26.5V21.8333H27.6667ZM2 13.6667H4.33333V11.3333H2V13.6667ZM20.6667 27.6667H18.3333V30H20.6667V27.6667ZM4.33333 10.1667V5.5C4.33333 4.85717 4.856 4.33333 5.5 4.33333H10.1667V2H5.5C3.56683 2 2 3.56683 2 5.5V10.1667H4.33333ZM2 20.6667H4.33333V18.3333H2V20.6667Z" fill="#8A8A8A"/>
</svg>
