<svg width="32" height="32" fill="none" xmlns="http://www.w3.org/2000/svg"><path d="M5.731 18.867c.316.39.667.784 1.053 1.18a4.748 4.748 0 00-2.321 1.522c-.727.878-1.113 2.037-1.024 3.032H1.503c.388-.842 1.938-3.277 4.228-5.734zm22.428 6.263h-2.354c-5.4-2.819-10.142-4.806-15.179-5.24.01-.701.136-1.495.376-2.379l-.464-.125c-.247.909-.376 1.731-.39 2.468A23.682 23.682 0 008.56 19.8c-.451 0-.863.042-1.238.114a16.65 16.65 0 01-1.261-1.398c2.323-2.42 6.15-4.608 9.48-5.432.937 3.117 2.95 5.253 5.392 6.69.18-.103.356-.21.528-.323l4.262 4.588.186-.016c1.164-.1 1.825.531 2 .728.13.143.206.274.249.377z" fill="#D1A41A"/><path d="M26.08 9.784c.087 4.234-2.073 7.603-5.097 9.331-5.133-2.556-6.1-9.035-5.225-12.51.243 1.329.686 2.162 1.642 2.57 2.084-.596 4.952-.643 7.065-.06.88-.64 1.222-1.619 1.408-2.473.233.994.206 3.142.207 3.142z" fill="#FFDC76"/><path d="M13.169 13.792l.783 2.32-2.379-1.595 1.596-.725zm-2.292 1.016l.841 1.45-1.769-.9.928-.55zm-1.914 1.131l.406 1.45-1.218-.84.812-.61zm12.967 3.887l-.755 1.16 1.334-.61-.58-.55zm1.188 1.334l-1.218.928 1.683-.435-.465-.493zM20.16 8.57l.899 1.973.58-2.001-1.48.029zm-4.555 2.872l1.422.755-1.277.087-.145-.842zm.349 1.538l.87.348-.726.203-.144-.551zm10.152-.986l-1.16.493.957.145.203-.638zm-.464 1.421l-.9.261.726.261.174-.522zm-7.704 2.177h-2.8v.346h2.8v-.346zm0-.829h-2.8v.345h2.8v-.345zm8.548.829h-2.799v.346h2.8v-.346zm0-.829h-2.799v.345h2.8v-.345z" fill="#000"/><path d="M22.7 12.714h-4.562v-.312h1.42c.175-.748.21-1.463-.002-1.826a.418.418 0 00-.391-.226c-.812 0-1.147.858-1.161.894l-.291-.11c.016-.044.423-1.095 1.452-1.095.287 0 .515.131.66.38.257.442.227 1.206.053 1.983h2.49c.332-.972 1.023-1.43 2.178-1.43v.31c-1.252 0-1.602.531-1.853 1.12h1.36l-.004.31-1.349.002z" fill="#000"/><path d="M22.905 14.25h.002c-.37-.545-.486-1.01-.332-1.538l-.317.002c-.11.352-.066.882.206 1.337h-3.165a7.42 7.42 0 00.501-1.338h-.322a6.57 6.57 0 01-.573 1.417l-.074.13 1.777 1.117-1 .66.171.259 1.118-.737 1.206.787.166-.263-1.119-.692 1.756-1.14-.001-.001zm-2.012.94l-1.314-.828h2.568l-1.254.827z" fill="#000"/><path d="M26.602 9.409c-.002-.541-.17-2.827-.48-3.456-.84.319-2.367 1.352-2.713 2.41a16.828 16.828 0 00-5.16.064c-.274-1.137-1.645-2.007-2.68-2.497-.437.736-.63 2.444-.581 3.656l-.006.004c.192 5.088 2.688 8.256 5.952 10.176 3.358-1.919 5.757-5.66 5.664-10.36l.004.003zm-2.794-.981l.036.007-.036-.007zm-.21-.036l.09.015-.09-.015zm2.482 1.384c.086 4.234-2.074 7.603-5.098 9.331-5.133-2.557-6.1-9.036-5.224-12.51.243 1.328.685 2.161 1.642 2.57 2.083-.596 4.952-.644 7.064-.06.88-.641 1.222-1.619 1.409-2.473.233.994.206 3.142.207 3.142z" fill="#000"/><path d="M28.268 24.423c-.527-.59-1.56-.868-2.422-.848-.612-.729-4.16-4.465-4.16-4.465l-.246.31 4.284 4.612.186-.016c1.164-.1 1.826.531 2 .727.13.144.207.275.249.378h-2.355c-5.4-2.818-10.142-4.805-15.178-5.239.01-.701.136-1.494.375-2.379l-.463-.125c-.246.909-.376 1.732-.39 2.467a23.95 23.95 0 00-1.587-.052c-.452 0-.863.042-1.239.114-.49-.489-.906-.955-1.26-1.398 2.34-2.437 6.202-4.64 9.55-5.45l-.109-.468c-3.604.869-7.55 3.235-9.748 5.52-1.02-1.376-1.425-2.506-1.545-3.363-.152-1.081.106-2.073.746-2.869 1.003-1.245 2.427-1.333 3.891-1.087-.028.232.002.453.095.59.387.571 2.468.772 3.71.218-.916-1.285-2.773-1.912-3.288-1.66a.88.88 0 00-.387.414c-.506-.09-1.009-.158-1.376-.155-1.292.01-2.28.46-3.019 1.38-.725.9-1.018 2.02-.848 3.236.162 1.152.732 2.377 1.688 3.648-.158.17-.312.338-.46.504C2.632 21.574.93 24.369.93 24.833v.24h3.074l-.054-.285c-.173-.917.173-2.064.883-2.921.446-.538 1.184-1.152 2.344-1.436 1.03 1.006 2.343 2.075 3.805 3.105h2.284v-.24a.784.784 0 00-.378-.667c-.36-.236-.918-.268-1.43-.094-.487-.543-.76-1.269-.82-2.17 4.958.439 9.7 2.44 15.05 5.236h2.943l.039-.193c.055-.275-.095-.643-.4-.985zM4.463 21.561c-.727.877-1.113 2.036-1.024 3.032H1.502c.39-.842 1.94-3.276 4.229-5.735.315.39.667.784 1.053 1.181a4.744 4.744 0 00-2.321 1.522z" fill="#000"/></svg>