<svg width="32" height="32" fill="none" xmlns="http://www.w3.org/2000/svg"><g clip-path="url(#clip0)"><path d="M26.159 10.167c-2.096 0-3.408 1.458-3.408 1.458-.698-.91-1.66-1.456-3.286-1.456-1.718 0-2.856 1.456-2.856 1.456-.698-.91-1.958-1.458-2.943-1.458-1.521 0-2.73.673-3.467 2.368l-2.47 5.403-2.795-6.862A1.512 1.512 0 002.9 10.31c-.813.363-1.112 1.27-.746 2.047l3.411 7.694c.537 1.169 1.103 1.781 2.164 1.781 1.133 0 1.627-.666 2.163-1.78 0 0 2.323-5.182 2.608-5.803.284-.62.758-1.167 1.458-1.167.802 0 1.458.656 1.458 1.459v5.76c0 .842.635 1.531 1.472 1.531s1.445-.689 1.445-1.53v-5.761c0-.803.656-1.459 1.459-1.459.802 0 1.458.656 1.458 1.459v5.833c0 .802.656 1.458 1.458 1.458.802 0 1.459-.656 1.459-1.458v-5.833c0-.803.656-1.459 1.458-1.459.802 0 1.458.656 1.458 1.459v5.833c0 .802.656 1.458 1.459 1.458.802 0 1.458-.656 1.458-1.458V13.875c0-2.18-1.744-3.708-3.841-3.708z" fill="#696566"/></g><defs><clipPath id="clip0"><path fill="#fff" d="M2 2h28v28H2z"/></clipPath></defs></svg>