<svg width="32" height="32" fill="none" xmlns="http://www.w3.org/2000/svg"><g clip-path="url(#clip0)"><path d="M26.159 10.167c-2.096 0-3.408 1.458-3.408 1.458-.698-.91-1.66-1.456-3.286-1.456-1.717 0-2.856 1.456-2.856 1.456-.698-.91-1.958-1.458-2.942-1.458-1.522 0-2.731.673-3.468 2.368l-2.47 5.403-2.795-6.862A1.512 1.512 0 002.9 10.31c-.813.363-1.112 1.27-.745 2.047l3.41 7.694c.538 1.169 1.103 1.781 2.164 1.781 1.133 0 1.627-.666 2.163-1.78 0 0 2.323-5.182 2.608-5.803.285-.62.758-1.167 1.458-1.167.802 0 1.459.657 1.459 1.459v5.76c0 .843.634 1.531 1.47 1.531.838 0 1.446-.688 1.446-1.53v-5.761c0-.802.657-1.459 1.459-1.459s1.458.657 1.458 1.459v5.833c0 .802.656 1.458 1.458 1.458.802 0 1.459-.656 1.459-1.458v-5.833c0-.802.656-1.459 1.458-1.459.802 0 1.458.657 1.458 1.459v5.833c0 .802.657 1.458 1.459 1.458S30 21.177 30 20.375v-6.5c0-2.18-1.744-3.708-3.841-3.708z" fill="#696566"/></g><defs><clipPath id="clip0"><path fill="#fff" d="M2 2h28v28H2z"/></clipPath></defs></svg>