<svg width="32" height="32" fill="none" xmlns="http://www.w3.org/2000/svg"><path d="M22.285 11.8H14.97c.035.175.105.35.14.49.245.84.385 1.715.455 2.625.035.35.035.735.035 1.085s0 .735-.035 1.085c-.07.91-.21 1.785-.455 2.625-.035.175-.105.35-.14.49h7.315c2.31 0 4.165-1.89 4.165-4.2 0-2.31-1.855-4.2-4.165-4.2z" fill="#00A9E5"/><path d="M15.565 17.085c.035-.35.035-.735.035-1.085s0-.735-.035-1.085c-.07-.91-.21-1.785-.455-2.625-.035-.175-.105-.35-.14-.49H3.63C3.21 13.13 3 14.53 3 16c0 1.47.21 2.87.63 4.2h11.305c.035-.175.105-.35.14-.49.245-.84.42-1.715.49-2.625z" fill="#353535"/><path d="M23.545 21.6h-9.1c-.28.63-.595 1.225-.945 1.785-.525.875-1.155 1.645-1.855 2.38-.245.245-.49.455-.735.7-.49.455-1.05.84-1.61 1.225A13.851 13.851 0 0017 30c4.865 0 9.135-2.485 11.655-6.23a7.138 7.138 0 00-5.11-2.17z" fill="#00BFB3"/><path d="M13.5 23.385c.35-.56.665-1.155.945-1.785H4.155c1.085 2.485 2.87 4.62 5.145 6.09.56-.385 1.085-.77 1.61-1.225.245-.21.49-.455.735-.7.665-.7 1.295-1.505 1.855-2.38z" fill="#019B8F"/><path d="M11.61 6.235c-.245-.245-.49-.455-.735-.7-.49-.455-1.05-.84-1.61-1.225-2.205 1.47-3.99 3.605-5.11 6.09H14.41c-.28-.63-.595-1.225-.945-1.785a12.403 12.403 0 00-1.855-2.38z" fill="#F9B110"/><path d="M17 2c-2.835 0-5.495.84-7.7 2.31.56.385 1.085.77 1.61 1.225.245.21.49.455.735.7.7.735 1.33 1.505 1.855 2.38.35.56.665 1.155.945 1.785h9.1c1.995 0 3.815-.84 5.11-2.17C26.135 4.485 21.865 2 17 2z" fill="#FED10A"/></svg>