<svg width="32" height="32" viewBox="0 0 32 32" fill="none" xmlns="http://www.w3.org/2000/svg">
<path d="M20.0368 10.6483H20.9518L23.5595 8.04055L23.6876 6.9334C22.1937 5.61485 20.3884 4.69891 18.4421 4.27208C16.4958 3.84525 14.4728 3.92164 12.5643 4.49403C10.6557 5.06641 8.92457 6.1159 7.53438 7.54335C6.14419 8.9708 5.14085 10.7291 4.61914 12.6521C4.90965 12.533 5.23147 12.5137 5.53413 12.5972L10.7496 11.7371C10.7496 11.7371 11.015 11.2979 11.1522 11.3254C12.2697 10.0981 13.8141 9.34432 15.4692 9.21844C17.1242 9.09257 18.7648 9.60409 20.0551 10.6483H20.0368Z" fill="#EA4335"/>
<path d="M27.2741 12.6521C26.6747 10.4448 25.4441 8.46043 23.7331 6.9425L20.0731 10.6025C20.8359 11.2257 21.4472 12.0141 21.8609 12.908C22.2746 13.802 22.4799 14.7782 22.4613 15.7631V16.4127C22.889 16.4127 23.3126 16.497 23.7078 16.6606C24.103 16.8243 24.4621 17.0643 24.7646 17.3668C25.0671 17.6692 25.307 18.0283 25.4707 18.4235C25.6344 18.8187 25.7187 19.2423 25.7187 19.6701C25.7187 20.0978 25.6344 20.5214 25.4707 20.9166C25.307 21.3118 25.0671 21.6709 24.7646 21.9734C24.4621 22.2759 24.103 22.5158 23.7078 22.6795C23.3126 22.8432 22.889 22.9275 22.4613 22.9275H15.9465L15.2969 23.5862V27.4933L15.9465 28.1429H22.4613C24.2805 28.1571 26.056 27.5853 27.5251 26.5122C28.9941 25.4391 30.0788 23.9216 30.6186 22.1842C31.1583 20.4469 31.1246 18.5819 30.5223 16.8652C29.92 15.1485 28.7811 13.6713 27.2741 12.6521V12.6521Z" fill="#4285F4"/>
<path d="M9.42244 28.1063H15.9372V22.8908H9.42244C8.95829 22.8907 8.49958 22.7909 8.07739 22.598L7.1624 22.8817L4.53637 25.4894L4.30762 26.4044C5.78024 27.5164 7.57715 28.1143 9.42244 28.1063V28.1063Z" fill="#34A853"/>
<path d="M9.42224 11.1881C7.65705 11.1986 5.93923 11.7602 4.50871 12.7945C3.07819 13.8287 2.00641 15.2839 1.44306 16.9568C0.879712 18.6297 0.852931 20.4368 1.36646 22.1257C1.87998 23.8145 2.90817 25.3009 4.30742 26.377L8.08634 22.5981C7.60612 22.3811 7.1857 22.0509 6.86117 21.6357C6.53663 21.2206 6.31766 20.7329 6.22305 20.2145C6.12843 19.6961 6.161 19.1624 6.31795 18.6594C6.47491 18.1564 6.75156 17.6989 7.12418 17.3263C7.49679 16.9537 7.95425 16.677 8.45729 16.5201C8.96033 16.3631 9.49395 16.3305 10.0123 16.4252C10.5307 16.5198 11.0184 16.7387 11.4336 17.0633C11.8488 17.3878 12.179 17.8082 12.396 18.2885L16.1749 14.5095C15.3817 13.4726 14.3595 12.6332 13.188 12.057C12.0166 11.4808 10.7277 11.1834 9.42224 11.1881V11.1881Z" fill="#FBBC05"/>
</svg>
