<svg width="105px" height="123px" viewBox="0 0 105 123" version="1.1" xmlns="http://www.w3.org/2000/svg" xmlns:xlink="http://www.w3.org/1999/xlink">
    <g id="Page-1" stroke="none" stroke-width="1" fill="none" fill-rule="evenodd">
        <g id="linux" transform="translate(-1.000000, 0.000000)">
            <polygon id="Path" fill="#FFFFFF" points="38.8375 34.7263158 39.175 42.4736842 33.775 52.5789474 23.65 69.1115723 23.65 82.8947368 29.725 102.431579 43.5625 110.178947 64.4875 110.178947 84.0625 95.3578947 92.8375 72.1157895 72.5875 47.5263158 66.85 33.7157895"></polygon>
            <path d="M86.7625,53.9263158 C81.3625,46.1789474 76.975,41.4631579 74.6125,31.6947368 C72.25,21.9263158 75.2875,24.6210526 73.2625,16.2 C72.25,11.8210526 70.5625,8.78947368 68.875,6.43157895 C66.85,4.07368421 64.4875,2.72631579 63.1375,2.38947368 C60.1,0.705263158 53.0125,-1.98947368 44.2375,2.72631579 C35.125,7.44210526 36.1375,17.5473684 37.825,38.0947368 C37.825,39.4421053 37.4875,41.1263158 36.8125,42.4736842 C35.4625,45.5052632 33.1,48.2 31.075,50.5578947 C28.7125,53.9263158 26.35,57.2947368 24.6625,61 C20.6125,68.7473684 16.9,78.5157895 17.9125,82.2210526 C19.6,81.8842105 40.8625,114.221053 40.8625,114.894737 C42.2125,114.557895 47.95,114.557895 53.0125,114.557895 C60.1,114.221053 64.15,113.884211 69.8875,115.231579 C69.8875,114.221053 69.55,113.210526 69.55,112.2 C69.55,110.178947 69.8875,108.494737 70.225,106.136842 C70.5625,104.452632 70.9,102.768421 71.2375,100.747368 C67.8625,103.778947 61.7875,107.147368 56.05,108.157895 C50.9875,109.168421 42.55,107.484211 38.5,102.431579 C38.8375,102.431579 39.5125,102.431579 39.85,102.094737 C40.8625,101.757895 41.875,101.421053 42.2125,100.747368 C43.225,99.0631579 42.55,97.3789474 41.875,96.3684211 C41.2,95.3578947 36.1375,91.6526316 33.775,89.6315789 C31.4125,87.6105263 30.0625,86.6 28.7125,85.2526316 C28.7125,85.2526316 26.6875,83.2315789 26.0125,82.5578947 C25.3375,81.8842105 25,81.2105263 24.6625,80.8736842 C23.9875,79.1894737 23.65,77.1684211 23.9875,74.4736842 C24.325,70.7684211 25.675,67.7368421 27.3625,64.3684211 C28.0375,63.0210526 29.725,60.0544434 29.725,60.3263158 C29.725,60.5981882 23.9875,74.4736842 27.025,78.8526316 C27.3625,78.5157895 27.3625,74.4736842 28.7125,70.0947368 C29.725,67.0631579 31.2770996,63.7168406 33.4375,60.3263158 C35.5979004,56.935791 40.525,49.2105263 40.8625,43.8210526 C40.8625,41.4631579 41.2,39.1052632 41.2,37.4210526 C39.85,36.0736842 63.475,32.7052632 64.825,36.4105263 C65.1625,37.7578947 69.8875,49.8842105 72.5875,56.2842105 C73.9375,59.3157895 75.625,62.0105263 76.6375,65.3789474 C77.65,69.0842105 78.325,74.1368421 78.325,79.1894737 C78.325,80.2 78.325,81.8842105 77.9875,83.5684211 C78.6625,83.5684211 90.1375,70.7684211 77.9875,58.3083496 C78.6625,57.9389648 85.5628906,63.189615 85.9003906,71.9475098 C86.2378906,79.021194 83.3875,83.5684211 82.7125,84.5789474 C83.05,84.5789474 89.8,87.6105263 90.1375,87.6105263 C91.4875,87.6105263 94.1875,86.6 94.1875,86.6 C94.525,85.5894737 95.5375,82.8947368 95.5375,81.8842105 C97.9,74.1368421 92.1625,61.6736842 86.7625,53.9263158 Z" id="Path" fill="#000000"></path>
            <ellipse id="Oval" fill="#FFFFFF" cx="43.9" cy="24.9578947" rx="4.3875" ry="6.73684211"></ellipse>
            <ellipse id="Oval" fill="#FFFFFF" cx="58.5875" cy="25.6210527" rx="5.2375" ry="7.7473685"></ellipse>
            <ellipse id="Oval" fill="#000000" transform="translate(44.007224, 25.714543) rotate(-97.203901) translate(-44.007224, -25.714543) " cx="44.0072238" cy="25.7145432" rx="4.04220429" ry="2.36241311"></ellipse>
            <ellipse id="Oval" fill="#000000" cx="58.375" cy="26.2194737" rx="2.875" ry="4.63"></ellipse>
            <path d="M103.321827,101.022552 L103.190984,100.96846 C103.21616,100.981023 102.546052,100.651383 102.325375,100.538671 C101.938431,100.341036 101.59158,100.150388 101.244555,99.9401046 C100.347797,99.3967058 99.5274307,98.7658784 98.7510083,97.9832204 C98.1481771,97.3755478 97.5867593,96.6892931 97.0429505,95.8731288 C96.6352804,95.1950032 96.5360572,94.5457695 96.4415314,92.9120444 C96.3745361,91.7541398 96.3366431,91.3086457 96.2319686,90.7077392 C95.9729584,89.2208366 95.4142788,88.1731641 94.3419015,87.4174023 C93.4876547,86.8153688 92.3003464,86.9952972 88.4653594,88.140504 C87.3247999,88.4810988 86.5975092,88.6825133 85.8285783,88.8577712 C82.0748691,89.7133316 79.3230993,89.3034981 77.2810834,86.9709542 C76.272092,85.9639296 75.645274,85.5789474 74.6125,85.5789474 C73.4622114,85.5789474 73.0580134,85.8723365 72.4690777,87.047912 C72.3960414,87.1936998 72.3345166,87.330155 72.2819721,87.4628655 C71.94591,88.3116506 71.9,88.9587486 71.9,92.3263158 C71.9,93.6968283 71.8978784,94.3257258 71.8874108,95.1092646 C71.8572789,97.3647515 71.7609502,99.0952882 71.5556241,100.527593 C71.4007107,101.84179 71.2212023,103.099738 71.0012321,104.459675 C70.8812472,105.201466 70.3377651,108.342495 70.2193167,109.112004 C69.9850905,110.633671 69.875,111.777339 69.875,112.873684 C69.875,116.058557 70.6666922,118.270974 71.8367507,119.146807 L71.9439166,119.239572 C72.8643164,120.158178 74.4905761,120.631579 77.65,120.631579 C80.8209178,120.631579 82.9676284,119.62727 85.3810834,117.218519 C85.5431111,117.056808 85.7029679,116.903144 85.8634547,116.754835 C86.1781303,116.464037 86.4978047,116.191393 86.8475315,115.914564 C87.6398878,115.287369 92.0460438,112.257934 93.31387,111.355865 C94.1669934,110.814026 95.1572493,110.215962 96.4023084,109.485002 C96.6090559,109.363623 96.8238967,109.237946 97.0519418,109.104942 C103.227202,105.503309 103.144435,105.552952 103.606083,105.092204 C103.731452,104.96708 103.852524,104.861152 104.036231,104.709889 C104.132858,104.630649 104.181235,104.590961 104.22149,104.557481 C104.81463,104.064161 105,103.724979 105,102.768421 C105,101.895749 104.452008,101.398545 103.321827,101.022552 Z" id="Path" stroke="#000000" stroke-width="2" fill="#FFC107"></path>
            <path d="M74.6125,86.5789474 C73.8728602,86.5789474 73.7937054,86.6364023 73.3631553,87.4958239 C73.3027761,87.616347 73.2531863,87.7263317 73.211747,87.8309941 C72.9424605,88.5111255 72.9,89.1096024 72.9,92.3263158 C72.9,93.701259 72.8978682,94.3331649 72.8873216,95.1226228 C72.856663,97.41753 72.758264,99.1852601 72.5487482,100.644659 C72.3920294,101.974172 72.210532,103.246059 71.9884018,104.61935 C71.8669754,105.370053 71.3243919,108.505888 71.2076763,109.26414 C70.9805454,110.739712 70.875,111.836163 70.875,112.873684 C70.875,115.773955 71.5611284,117.69137 72.4360013,118.346246 C72.5117437,118.402942 72.5833675,118.464941 72.6503332,118.531776 C73.3495888,119.229668 74.7302594,119.631579 77.65,119.631579 C80.5380857,119.631579 82.4385656,118.742466 84.6746668,116.510723 C84.8456618,116.340062 85.0147522,116.177522 85.1847607,116.020414 C85.5185559,115.711947 85.8575845,115.422796 86.2268812,115.130477 C87.0502909,114.478701 91.4916745,111.425045 92.6890256,110.571461 L92.7777401,110.511729 C93.6424407,109.962538 94.6417727,109.358993 95.8960231,108.622636 C96.1036384,108.500748 96.3192974,108.374592 96.5481336,108.241127 C102.369125,104.846116 102.539365,104.744007 102.899667,104.384407 C103.052953,104.23142 103.194141,104.107893 103.400587,103.937907 C103.4997,103.85662 103.54484,103.819588 103.582043,103.788645 C103.961486,103.473059 104,103.402589 104,102.768421 C104,102.431688 103.77441,102.227006 103.006154,101.97142 C102.916479,101.941587 102.829031,101.905435 102.744468,101.863236 C102.775583,101.878763 102.099171,101.546022 101.870514,101.429233 C101.46344,101.221317 101.095961,101.01933 100.726316,100.795341 C99.7627165,100.211439 98.8779686,99.5311042 98.0410791,98.6874935 C97.393146,98.0343567 96.7909749,97.2982868 96.185901,96.3883629 C95.6586291,95.5112894 95.5485901,94.7912868 95.443201,92.9698069 C95.3784822,91.8512476 95.3425827,91.4291891 95.2468037,90.8793494 C95.0296516,89.6327419 94.5962877,88.8200697 93.7658342,88.2348046 C93.2967861,87.9042412 92.1894363,88.0720524 88.7514947,89.0986933 C87.5912793,89.4451577 86.846649,89.6513742 86.0508032,89.8327666 C82.0042646,90.7550699 78.9065618,90.3039124 76.5314897,87.6358088 C75.7229038,86.8345457 75.2949088,86.5789474 74.6125,86.5789474 Z M103.6375,100.073684 C104.65,100.410526 106,101.084211 106,102.768421 C106,104.789474 104.9875,105.126316 104.3125,105.8 C103.3,106.810526 97.5625,109.842105 93.85,112.2 C89.125,115.568421 87.775,116.242105 86.0875,117.926316 C83.725,120.284211 81.3625,121.631579 77.65,121.631579 C73.9375,121.631579 72.25,120.957895 71.2375,119.947368 C69.8875,118.936842 68.875,116.578947 68.875,112.873684 C68.875,109.505263 69.8875,106.136842 70.5625,100.410526 C70.9,98.0526316 70.9,95.0210526 70.9,92.3263158 C70.9,88.9578947 70.9,87.9473684 71.575,86.6 C72.25,85.2526316 72.925,84.5789474 74.6125,84.5789474 C76.3,84.5789474 77.3125,85.5894737 77.9875,86.2631579 C82.7125,91.6526316 91.4785156,84.1760329 94.9179688,86.6 C98.3574219,89.0239671 96.8875,93.6736842 97.9,95.3578947 C99.925,98.3894737 102.2875,99.4 103.6375,100.073684 Z" id="Path" fill="#000000" fill-rule="nonzero"></path>
            <path d="M34.9404704,101.595794 C34.0519609,100.176672 33.3309916,98.9941544 32.5869936,97.746175 C32.5661586,97.7112264 31.3626628,95.6799149 31.056948,95.1758054 C30.9783118,95.046138 30.9020136,94.9212012 30.8268542,94.7990778 C30.2405446,93.8464075 29.6672483,92.9749609 28.8679505,91.8310235 C25.8604707,86.828328 22.2860366,82.5473684 20.6125,82.5473684 C19.2333497,82.5473684 18.6141297,82.9336265 17.025,84.5052632 L16.9314166,84.6130595 C16.6498803,84.8940469 16.3401018,85.291406 15.8987065,85.9247352 C15.8123789,86.048601 15.722465,86.179167 15.6016686,86.3557135 C15.4480252,86.5805503 15.360259,86.708983 15.2889231,86.8129895 C15.0232076,87.2003978 14.8194935,87.4911683 14.60977,87.7791728 C13.6546497,89.0907991 12.7751227,90.0468879 11.801947,90.7372562 C10.8986839,91.4885082 9.94442289,91.690288 7.55958778,91.9074583 C7.18619225,91.9414608 7.08944447,91.9504084 6.9159699,91.9674225 C4.47771507,92.2065638 3.40958941,92.6325525 2.97822642,93.7088578 C2.6405334,94.5514447 2.59504654,95.2664662 2.77790962,96.121966 C2.84199507,96.421781 2.93391993,96.7428908 3.06923373,97.1512061 C3.14661876,97.3847188 3.44581027,98.2421512 3.48245776,98.3495934 C4.10596441,100.177574 4.4,101.595976 4.4,103.442105 C4.4,104.63152 4.02264282,105.543223 3.2031816,106.837266 C2.49422007,107.956814 2.42654253,108.075465 2.35550695,108.354379 C1.90482815,110.603381 1.94998642,110.332959 1.99587725,110.836774 C2.02188159,111.122264 2.09794963,111.396187 2.24223795,111.697327 C3.41111644,113.404507 5.30155175,114.056528 16.1040274,116.276355 C18.2706843,116.756896 20.3801802,117.45869 23.2704272,118.584393 C30.0186951,121.21273 29.8754094,121.161692 31.5028607,121.309354 C37.2152833,121.827653 40.5375,119.932944 40.539455,113.148027 C40.6783032,110.930786 40.2447243,109.456286 39.0964178,107.693104 C39.231222,107.900091 36.013902,103.490971 34.9404704,101.595794 Z" id="Path" stroke="#000000" stroke-width="2" fill="#FFC107"></path>
            <path d="M31.7280498,98.2582448 C31.7047467,98.2191563 30.5044703,96.1932785 30.201896,95.6943477 C30.1243634,95.5665001 30.0491997,95.4434209 29.9752162,95.3232083 C29.3994195,94.3876199 28.8371085,93.5328717 28.0875886,92.4642161 L28.010901,92.3462576 C26.7827447,90.3033205 25.2844221,88.1243064 23.886662,86.4502639 C22.3401729,84.5980945 21.0157099,83.5473684 20.6125,83.5473684 C19.5754493,83.5473684 19.1470094,83.8146214 17.825,85.1052632 L17.6378332,85.3208558 C17.4090054,85.5492374 17.1289337,85.908491 16.7191143,86.496514 C16.6347337,86.6175862 16.5462862,86.7460228 16.4269728,86.9204019 C16.2738744,87.144442 16.1854988,87.2737664 16.1135883,87.3786106 C15.8430098,87.7731092 15.6344141,88.0708475 15.4181511,88.3678322 C14.4225609,89.7350342 13.4913285,90.7522023 12.3815644,91.5552374 C11.2765744,92.4514686 10.2205923,92.6692769 7.65027556,92.9033377 C7.27951072,92.9371007 7.18380581,92.9459517 7.01358042,92.9626472 C4.92528107,93.1674653 4.14834496,93.4773221 3.90645284,94.0808736 C3.64568944,94.7315113 3.61302886,95.2449126 3.75581923,95.9129378 C3.81114804,96.171786 3.89367592,96.4600705 4.01846747,96.8366345 C4.09288509,97.0611929 4.38999892,97.912671 4.42891552,98.0267657 C5.08489585,99.9499517 5.4,101.469986 5.4,103.442105 C5.4,104.869861 4.96091433,105.930701 4.04802987,107.372272 C3.42500973,108.356106 3.35748757,108.474486 3.3360139,108.550864 C2.92215629,110.616118 2.95953166,110.392303 2.9917545,110.746063 C3.00504834,110.89201 3.04062003,111.032403 3.11243963,111.196387 C4.08151054,112.543117 5.97933109,113.174911 16.3205549,115.300079 C18.5478686,115.794072 20.6994318,116.509862 23.6333545,117.652576 C30.1982681,120.209499 30.1130552,120.179147 31.5932214,120.313445 C36.7941694,120.785337 39.5375,119.220775 39.5375,113.210526 L39.54141,113.085527 C39.6661365,111.093794 39.2943361,109.829388 38.2584606,108.23884 C38.4212394,108.488781 35.2003363,104.074862 34.0814727,102.108224 C33.1941543,100.690739 32.472429,99.5068635 31.7280498,98.2582448 Z M35.8,101.084211 C38.8375,106.473684 41.875,107.821053 41.5375,113.210526 C41.5375,122.305263 35.125,122.642105 31.4125,122.305263 C27.7,121.968421 21.9625,118.6 15.8875,117.252632 C4.4125,114.894737 2.725,114.221053 1.375,112.2 C0.7,110.852632 1.0375,109.842105 1.375,108.157895 C1.7125,106.810526 3.4,105.463158 3.4,103.442105 C3.4,98.3894737 0.7,96.7052632 2.05,93.3368421 C3.4,89.9684211 9.1375,91.6526316 11.1625,89.9684211 C13.525,88.2842105 14.875,85.2526316 16.225,83.9052632 C17.575,82.5578947 18.5875,81.5473684 20.6125,81.5473684 C23.3125,81.5473684 27.7,87.9473684 29.725,91.3157895 C32.0875,94.6842105 32.425,95.6947368 35.8,101.084211 Z" id="Path" fill="#000000" fill-rule="nonzero"></path>
            <path d="M46.8973038,42.8643331 C48.096454,43.1531273 49.9783831,43.2781328 51.2329365,43.1621416 C51.5051291,43.1369757 51.7863487,43.0911622 52.0772525,43.0250656 C53.3386354,42.7384654 54.6318548,42.137374 56.4955389,41.0581679 C56.3436884,41.1461002 58.2595088,40.0205543 58.7462512,39.7519378 C59.5440397,39.3116658 60.1720809,39.0193821 60.7444719,38.8449537 C63.607917,37.4122345 63.8508165,37.0673226 64.1564973,34.0617766 C63.964123,32.5628547 63.3049636,32.1512908 60.810058,31.6507544 C60.6852324,31.6257115 60.1709898,31.524101 60.0391876,31.4976909 C59.7232633,31.4343869 59.4639256,31.3803016 59.2084726,31.323645 L59.0542337,31.2760946 C58.7740248,31.1642296 56.5736569,30.1738222 55.7738556,29.8455939 C54.2874632,29.2355974 52.9606143,28.7983832 51.7199522,28.5463898 C50.9718252,28.3944362 50.2761664,28.3157895 49.6375,28.3157895 C48.2181057,28.3157895 46.6292165,28.8985202 45.0153758,29.8933612 C43.9623869,30.5424688 42.9897112,31.3213502 42.514447,31.7898878 C42.4465409,31.8463659 40.7226475,33.2210544 40.3837484,33.5416763 C39.7344386,34.1559681 39.5,34.6284309 39.5,35.4 C39.5,36.932941 40.2014913,37.8020209 42.7119853,39.2494671 L42.8421297,39.3388941 C43.2251295,39.6492938 44.4883893,41.1437224 44.6897949,41.3507189 C45.3694238,42.0492138 46.0596609,42.5421621 46.8973038,42.8643331 Z" id="Path" stroke="#000000" stroke-width="2" fill="#FFC107"></path>
            <path d="M51.1408729,42.1663885 C51.3682034,42.1453704 51.606325,42.106578 51.8556885,42.0499198 C52.9930939,41.7914886 54.2119965,41.2249398 55.9944223,40.1927881 C55.8310981,40.2873645 57.762488,39.1526715 58.2630789,38.8764126 C59.0808131,38.4251331 59.7423809,38.1141977 60.3701574,37.91417 C62.8122579,36.6942565 62.8951059,36.5978471 63.1495243,34.0814592 C63.0159003,33.2246305 62.6405354,33.0379173 60.6133542,32.6312174 C60.4903972,32.6065493 59.9763095,32.5049695 59.8427159,32.4782004 C59.520637,32.4136631 59.2549993,32.358264 58.9919451,32.2999215 C58.8867247,32.2765848 58.7835629,32.244781 58.6834674,32.2048208 C58.3778819,32.0828249 56.1716326,31.0897703 55.3941957,30.77072 C53.9612688,30.1826651 52.6905672,29.7639522 51.5209045,29.5263796 C50.8347967,29.3870228 50.2047117,29.3157895 49.6375,29.3157895 C48.4350331,29.3157895 47.0103939,29.838281 45.5401266,30.7446171 C44.5550864,31.3518383 43.6428415,32.0823289 43.2878332,32.4366452 L43.1538941,32.5587229 C43.0545465,32.6413512 41.373754,33.9816696 41.0709954,34.2681001 C40.6091684,34.7050202 40.5,34.9250268 40.5,35.4 C40.5,36.5030095 40.9783222,37.0956045 43.2114707,38.3831448 C43.3028124,38.4358086 43.3898466,38.495613 43.4717595,38.5619987 C43.9418835,38.9430077 45.2628621,40.5057174 45.4065145,40.6533575 C45.9750589,41.2376842 46.5330246,41.641499 47.1962221,41.9073922 C48.2893123,42.1590395 50.0155533,42.2704312 51.1408729,42.1663885 Z M42.2125,40.1157895 C39.5125,38.559082 38.5,37.4210526 38.5,35.4 C38.5,33.3789474 39.85,32.7052632 41.875,31.0210526 C42.2125,30.6842105 45.925,27.3157895 49.6375,27.3157895 C53.35,27.3157895 57.7375,29.6736842 59.425,30.3473684 C62.4625,31.0210526 64.825,31.0210526 65.1625,34.0526316 C64.825,37.4210526 64.4875,38.0947368 61.1125,39.7789474 C58.75,40.4526316 54.9682617,43.8210526 51.325,44.1578947 C49.9892083,44.281397 47.95,44.1578947 46.6,43.8210526 C44.15979,42.9099121 43.1486816,40.8745117 42.2125,40.1157895 Z" id="Path" fill="#000000" fill-rule="nonzero"></path>
            <path d="M79.2019043,91.3461914 C79.4038086,92.2351074 81.3625,93 82.7125,93 C84.7375,93 86.7625,91.6526316 87.775,90.3052632 C88.6644287,89.4179688 89.4625,87.6105263 89.8,87.2736842 C89.8,87.2736842 89.4625,86.9368421 89.4625,86.6 C89.125,85.9263158 88.1125,85.2526316 86.7625,84.9157895 C85.75,84.5789474 84.0625,84.2421053 83.3875,84.2421053 C80.35,83.9052632 78.6625,84.9157895 77.65,85.9263158 C77.65,85.9263158 79,87.6105263 79,88.6210526 C79,89.2947368 79,90.4572754 79.2019043,91.3461914 Z" id="Path" fill="#000000"></path>
        </g>
    </g>
</svg>