<svg width="2560" height="895" viewBox="0 0 2560 895" fill="none" xmlns="http://www.w3.org/2000/svg">
<g id="background-monochrome-light" clip-path="url(#clip0)">
<g id="Home">
<g id="ObservIQ-Background-Silver-2560px-Copy">
<g id="ObservIQ-Background-Silver">
<g id="Pattern">
<path id="Mask" d="M2562 95.0002L0 220V805L2560 687L2562 95.0002Z" fill="#F1F3F5"/>
<g id="Circles">
<path id="Fill-12" opacity="0.3" fill-rule="evenodd" clip-rule="evenodd" d="M1768.56 454.286C1793 456.472 1811.1 478.132 1808.92 502.57C1806.73 527.008 1785.07 545.11 1760.63 542.924C1736.19 540.738 1718.09 519.077 1720.28 494.639C1722.46 470.203 1744.12 452.099 1768.56 454.286Z" fill="white"/>
<path id="Fill-12_2" opacity="0.3" fill-rule="evenodd" clip-rule="evenodd" d="M1880.36 447.425C1904.79 449.612 1922.9 471.271 1920.71 495.71C1918.52 520.148 1896.87 538.25 1872.43 536.064C1847.99 533.878 1829.89 512.217 1832.07 487.779C1834.26 463.342 1855.92 445.238 1880.36 447.425Z" fill="white"/>
<path id="Fill-6" opacity="0.3" fill-rule="evenodd" clip-rule="evenodd" d="M766.945 239.412C791.383 241.599 809.485 263.258 807.299 287.696C805.112 312.134 783.453 330.237 759.015 328.05C734.576 325.864 716.474 304.204 718.66 279.765C720.847 255.329 742.507 237.225 766.945 239.412Z" fill="white"/>
<path id="Fill-15" opacity="0.3" fill-rule="evenodd" clip-rule="evenodd" d="M1895.2 663.496L2554.71 628.932C2579.59 627.628 2598.87 606.115 2597.56 581.125C2596.25 556.133 2574.82 536.753 2549.95 538.057L1890.44 572.62C1865.56 573.924 1846.28 595.438 1847.59 620.429C1848.9 645.419 1870.32 664.799 1895.2 663.496Z" fill="white"/>
<path id="Fill-17" opacity="0.3" fill-rule="evenodd" clip-rule="evenodd" d="M-21.714 371.419L637.796 336.855C662.672 335.552 681.955 314.038 680.645 289.048C679.335 264.056 657.909 244.676 633.033 245.98L-26.4766 280.543C-51.3537 281.847 -70.6355 303.361 -69.3258 328.352C-68.0161 353.342 -46.5911 372.723 -21.714 371.419Z" fill="white"/>
<path id="Fill-20" opacity="0.3" fill-rule="evenodd" clip-rule="evenodd" d="M1026.87 618.321C1051.31 620.508 1069.41 642.167 1067.22 666.604C1065.04 691.043 1043.38 709.146 1018.94 706.959C994.501 704.773 976.399 683.112 978.585 658.674C980.771 634.237 1002.43 616.134 1026.87 618.321Z" fill="white"/>
<path id="Fill-6_2" opacity="0.3" fill-rule="evenodd" clip-rule="evenodd" d="M1757.16 198.532C1781.6 200.719 1799.7 222.378 1797.52 246.816C1795.33 271.254 1773.67 289.356 1749.23 287.17C1724.79 284.984 1706.69 263.323 1708.88 238.885C1711.06 214.449 1732.72 196.345 1757.16 198.532Z" fill="white"/>
<path id="Fill-6_3" opacity="0.3" fill-rule="evenodd" clip-rule="evenodd" d="M2234.48 176.518C2258.91 178.705 2277.02 200.365 2274.83 224.803C2272.64 249.241 2250.98 267.343 2226.55 265.157C2202.11 262.971 2184.01 241.31 2186.19 216.872C2188.38 192.435 2210.04 174.331 2234.48 176.518Z" fill="white"/>
<path id="Fill-17_2" opacity="0.3" fill-rule="evenodd" clip-rule="evenodd" d="M251.455 749.641L910.965 715.077C935.841 713.774 955.124 692.26 953.814 667.27C952.504 642.278 931.078 622.898 906.202 624.202L246.692 658.765C221.815 660.069 202.533 681.583 203.843 706.574C205.153 731.564 226.578 750.944 251.455 749.641Z" fill="white"/>
<path id="Fill-17_3" opacity="0.3" fill-rule="evenodd" clip-rule="evenodd" d="M-5.9859 883.283L653.524 848.719C678.4 847.416 697.683 825.902 696.373 800.912C695.063 775.92 673.638 756.54 648.761 757.844L-10.7485 792.407C-35.6256 793.711 -54.9075 815.225 -53.5978 840.216C-52.2881 865.206 -30.863 884.586 -5.9859 883.283Z" fill="white"/>
<path id="Rectangle" opacity="0.3" d="M1877.2 191.896L2105.89 179.911C2131.26 178.581 2152.9 198.07 2154.23 223.44C2155.56 248.811 2136.07 270.455 2110.7 271.785L1882.02 283.77C1856.65 285.099 1835 265.61 1833.67 240.24C1832.34 214.87 1851.83 193.225 1877.2 191.896Z" fill="white"/>
<path id="Fill-1" opacity="0.3" fill-rule="evenodd" clip-rule="evenodd" d="M344.177 407.769C368.614 409.955 386.717 431.615 384.531 456.053C382.344 480.491 360.684 498.593 336.247 496.407C311.808 494.221 293.705 472.56 295.892 448.122C298.078 423.686 319.738 405.582 344.177 407.769Z" fill="white"/>
<path id="Fill-12_3" opacity="0.3" fill-rule="evenodd" clip-rule="evenodd" d="M569.92 396.939C594.356 399.126 612.46 420.785 610.273 445.223C608.086 469.662 586.427 487.764 561.989 485.578C537.551 483.392 519.448 461.731 521.635 437.293C523.821 412.856 545.481 394.752 569.92 396.939Z" fill="white"/>
<path id="Rectangle_2" opacity="0.3" d="M1629.77 342.948L1858.45 330.963C1883.82 329.634 1905.47 349.122 1906.8 374.493C1908.13 399.863 1888.64 421.507 1863.27 422.837L1634.58 434.822C1609.21 436.152 1587.57 416.663 1586.24 391.292C1584.91 365.922 1604.4 344.278 1629.77 342.948Z" fill="white"/>
<path id="Rectangle-Copy-2" opacity="0.3" d="M889.079 234.564L1117.77 222.579C1143.14 221.249 1164.78 240.738 1166.11 266.109C1167.44 291.479 1147.95 313.123 1122.58 314.453L893.894 326.438C868.524 327.768 846.879 308.279 845.55 282.908C844.22 257.538 863.709 235.894 889.079 234.564Z" fill="white"/>
<path id="Fill-6_4" opacity="0.3" fill-rule="evenodd" clip-rule="evenodd" d="M2104.08 321.544C2128.51 323.731 2146.62 345.391 2144.43 369.829C2142.24 394.267 2120.58 412.369 2096.15 410.183C2071.71 407.997 2053.61 386.336 2055.79 361.898C2057.98 337.461 2079.64 319.358 2104.08 321.544Z" fill="white"/>
<path id="Fill-6-Copy-7" opacity="0.3" fill-rule="evenodd" clip-rule="evenodd" d="M1363.39 213.16C1387.83 215.347 1405.93 237.007 1403.74 261.445C1401.56 285.883 1379.9 303.985 1355.46 301.799C1331.02 299.613 1312.92 277.952 1315.1 253.514C1317.29 229.077 1338.95 210.974 1363.39 213.16Z" fill="white"/>
<path id="Fill-6-Copy-4" opacity="0.3" fill-rule="evenodd" clip-rule="evenodd" d="M1755.27 200.634C1779.71 202.821 1797.81 224.48 1795.62 248.918C1793.44 273.356 1771.78 291.459 1747.34 289.272C1722.9 287.086 1704.8 265.425 1706.99 240.987C1709.17 216.551 1730.83 198.447 1755.27 200.634Z" fill="white"/>
</g>
<g id="Patern-Circles-WHT">
<path id="Fill-6_5" opacity="0.6" fill-rule="evenodd" clip-rule="evenodd" d="M1979.23 438.052C1955.08 442.36 1938.93 465.515 1943.24 489.669C1947.55 513.824 1970.7 529.97 1994.85 525.662C2019.01 521.354 2035.16 498.198 2030.85 474.044C2026.54 449.89 2003.38 433.743 1979.23 438.052Z" fill="white"/>
<path id="Rectangle-Copy-5" opacity="0.6" d="M887.978 499.92L659.117 507.912C633.727 508.798 613.864 530.099 614.75 555.489C615.637 580.879 636.938 600.742 662.328 599.856L891.188 591.864C916.578 590.977 936.441 569.676 935.555 544.286C934.668 518.897 913.367 499.033 887.978 499.92Z" fill="white"/>
<path id="Rectangle-Copy-7" opacity="0.6" d="M1742.63 565.462L1513.77 573.454C1488.38 574.34 1468.52 595.641 1469.4 621.031C1470.29 646.421 1491.59 666.284 1516.98 665.398L1745.84 657.406C1771.23 656.519 1791.1 635.218 1790.21 609.828C1789.32 584.439 1768.02 564.575 1742.63 565.462Z" fill="white"/>
<path id="Fill-1_2" opacity="0.6" fill-rule="evenodd" clip-rule="evenodd" d="M447.534 403.594C423.381 407.902 407.234 431.057 411.542 455.212C415.851 479.366 439.005 495.512 463.159 491.204C487.315 486.896 503.461 463.74 499.152 439.586C494.845 415.433 471.689 399.286 447.534 403.594Z" fill="white"/>
<path id="Fill-1_3" opacity="0.6" fill-rule="evenodd" clip-rule="evenodd" d="M1976.02 332.859C1951.86 337.168 1935.72 360.322 1940.02 384.477C1944.33 408.631 1967.49 424.777 1991.64 420.469C2015.8 416.162 2031.94 393.006 2027.63 368.851C2023.33 344.698 2000.17 328.551 1976.02 332.859Z" fill="white"/>
<path id="Fill-1-Copy-4" opacity="0.6" fill-rule="evenodd" clip-rule="evenodd" d="M1232.55 223.419C1208.4 227.727 1192.25 250.882 1196.56 275.036C1200.87 299.191 1224.02 315.336 1248.18 311.029C1272.33 306.721 1288.48 283.565 1284.17 259.41C1279.86 235.257 1256.71 219.11 1232.55 223.419Z" fill="white"/>
<path id="Fill-1-Copy" opacity="0.6" fill-rule="evenodd" clip-rule="evenodd" d="M1622.15 202.055C1598 206.363 1581.85 229.518 1586.16 253.672C1590.47 277.827 1613.62 293.972 1637.78 289.665C1661.93 285.357 1678.08 262.201 1673.77 238.046C1669.46 213.893 1646.31 197.746 1622.15 202.055Z" fill="white"/>
<path id="Fill-1-Copy-2" opacity="0.6" fill-rule="evenodd" clip-rule="evenodd" d="M1554.88 54.4991C1530.73 58.8075 1514.58 81.9623 1518.89 106.117C1523.2 130.271 1546.35 146.417 1570.51 142.109C1594.66 137.802 1610.81 114.645 1606.5 90.4909C1602.19 66.3378 1579.03 50.1907 1554.88 54.4991Z" fill="white"/>
<path id="Fill-1-Copy-6" opacity="0.6" fill-rule="evenodd" clip-rule="evenodd" d="M1634.91 568.168C1610.75 572.476 1594.61 595.631 1598.91 619.786C1603.22 643.94 1626.38 660.086 1650.53 655.778C1674.69 651.47 1690.83 628.314 1686.52 604.16C1682.22 580.007 1659.06 563.86 1634.91 568.168Z" fill="white"/>
<path id="Rectangle_3" opacity="0.6" d="M1156.93 360.82L928.069 368.812C902.679 369.698 882.816 390.999 883.702 416.389C884.589 441.779 905.89 461.642 931.28 460.756L1160.14 452.764C1185.53 451.877 1205.39 430.576 1204.51 405.186C1203.62 379.797 1182.32 359.933 1156.93 360.82Z" fill="white"/>
<path id="Rectangle-Copy" opacity="0.6" d="M1495.84 463.426L1266.98 471.418C1241.59 472.304 1221.73 493.606 1222.62 518.995C1223.5 544.385 1244.8 564.248 1270.19 563.362L1499.05 555.37C1524.44 554.483 1544.31 533.182 1543.42 507.792C1542.53 482.403 1521.23 462.539 1495.84 463.426Z" fill="white"/>
</g>
</g>
<g id="Border-Break-Top">
<path id="Rectangle_4" d="M812.933 111.61L1041.79 103.618C1067.18 102.731 1088.48 122.595 1089.37 147.984C1090.26 173.374 1070.39 194.675 1045 195.562L816.143 203.554C790.754 204.44 769.453 184.577 768.566 159.187C767.679 133.797 787.543 112.496 812.933 111.61Z" fill="#F1F3F5"/>
<path id="Rectangle-Copy-4" d="M223.933 135.61L452.793 127.618C478.183 126.731 499.484 146.595 500.371 171.984C501.257 197.374 481.394 218.675 456.004 219.562L227.143 227.554C201.754 228.44 180.453 208.577 179.566 183.187C178.679 157.797 198.543 136.496 223.933 135.61Z" fill="#F1F3F5"/>
<path id="Fill-6-Copy-4_2" fill-rule="evenodd" clip-rule="evenodd" d="M580.803 123.324C605.198 125.937 622.92 147.909 620.307 172.305C617.694 196.701 595.722 214.423 571.327 211.811C546.93 209.198 529.208 187.225 531.821 162.829C534.434 138.434 556.406 120.711 580.803 123.324Z" fill="#F1F3F5"/>
<path id="Rectangle-Copy-4_2" opacity="0.5" d="M488.933 8.41133L717.793 0.419342C743.183 -0.467283 764.484 19.3963 765.371 44.7859C766.257 70.1756 746.394 91.4767 721.004 92.3633L492.143 100.355C466.754 101.242 445.453 81.3783 444.566 55.9887C443.679 30.5991 463.543 9.29795 488.933 8.41133Z" fill="#F1F3F5"/>
<path id="Fill-6-Copy-4_3" opacity="0.5" fill-rule="evenodd" clip-rule="evenodd" d="M385.282 12.3238C409.678 14.9369 427.399 36.9089 424.787 61.3051C422.174 85.7013 400.202 103.423 375.807 100.811C351.41 98.1983 333.688 76.2249 336.3 51.8287C338.913 27.4339 360.886 9.71085 385.282 12.3238Z" fill="#F1F3F5"/>
<path id="Fill-6-Copy-11" fill-rule="evenodd" clip-rule="evenodd" d="M696.802 119.324C721.198 121.937 738.92 143.909 736.307 168.305C733.694 192.701 711.722 210.423 687.327 207.811C662.93 205.198 645.208 183.225 647.82 158.829C650.433 134.434 672.406 116.711 696.802 119.324Z" fill="#F1F3F5"/>
</g>
<path id="Fill-6-Copy-6" fill-rule="evenodd" clip-rule="evenodd" d="M2152.64 806.391C2128.35 809.854 2111.41 832.431 2114.87 856.721C2118.33 881.011 2140.91 897.956 2165.2 894.493C2189.49 891.031 2206.43 868.453 2202.97 844.163C2199.51 819.874 2176.93 802.928 2152.64 806.391Z" fill="#F1F3F5"/>
<g id="Border-Break-Bottom">
<path id="Rectangle-Copy-5_2" d="M1738.44 704.665L1967.3 696.673C1992.69 695.786 2013.99 715.65 2014.88 741.039C2015.76 766.429 1995.9 787.73 1970.51 788.617L1741.65 796.609C1716.26 797.495 1694.96 777.632 1694.07 752.242C1693.18 726.852 1713.05 705.551 1738.44 704.665Z" fill="#F1F3F5"/>
<path id="Fill-1-Copy-3" fill-rule="evenodd" clip-rule="evenodd" d="M2103.96 691.097C2128.36 693.71 2146.08 715.682 2143.47 740.079C2140.86 764.475 2118.88 782.196 2094.49 779.584C2070.09 776.972 2052.37 754.998 2054.98 730.602C2057.59 706.207 2079.57 688.484 2103.96 691.097Z" fill="#F1F3F5"/>
<path id="Fill-6-Copy-6_2" fill-rule="evenodd" clip-rule="evenodd" d="M2222.91 686.867C2247.3 689.48 2265.02 711.452 2262.41 735.848C2259.8 760.244 2237.83 777.966 2213.43 775.353C2189.03 772.741 2171.31 750.768 2173.92 726.371C2176.54 701.977 2198.51 684.254 2222.91 686.867Z" fill="#F1F3F5"/>
</g>
</g>
</g>
</g>
</g>
<defs>
<clipPath id="clip0">
<rect width="2560" height="895" fill="white"/>
</clipPath>
</defs>
</svg>
